<?xml version="1.0" encoding="utf-8"?>
<!-- Generator: Adobe Illustrator 17.0.0, SVG Export Plug-In . SVG Version: 6.00 Build 0)  -->
<!DOCTYPE svg PUBLIC "-//W3C//DTD SVG 1.1 Tiny//EN" "http://www.w3.org/Graphics/SVG/1.1/DTD/svg11-tiny.dtd">
<svg version="1.1" baseProfile="tiny" id="Layer_1" xmlns="http://www.w3.org/2000/svg" xmlns:xlink="http://www.w3.org/1999/xlink"
	 x="0px" y="0px" width="480px" height="480px" viewBox="0 0 480 480" overflow="scroll" xml:space="preserve">
<rect fill="#FFB000" width="480" height="480"/>
<g>
	<polygon fill="#FFFFFF" points="128.192,144.442 186,150.128 186,341.408 153,341.06 153,178.033 120.26,181.17 	"/>
	<path fill="#FFFFFF" d="M205.235,144.467L210.1,181h73.925L262,197.384v26.313c0,0,38.885,5.098,46.645,19.228
		c7.76,14.131,11.186,54.195-11.301,63.485C274.857,315.7,239.347,323,231.018,273h-32.232c0,0,7.374,77.229,87.936,73.517
		s65.412-90.367,59.348-103.294c0,0-10.675-36.935-41.991-41.086L332,181.144v-32.539L205.235,144.467z"/>
	<g>
		<path fill="none" stroke="#000000" stroke-width="3.2642" stroke-miterlimit="10" d="M180.926,148.39V341.06h-31.928V180.318
			h-24.772V148.39H180.926z"/>
		<path fill="none" stroke="#000000" stroke-width="3.2642" stroke-miterlimit="10" d="M332.032,148.666v0.275l0.276-0.275v32.478
			l-28.075,20.919c11.561,3.673,20.686,9.268,27.387,16.79c6.696,7.525,11.512,15.598,14.45,24.221
			c2.932,8.627,4.404,18.165,4.404,28.625c0,10.459-1.974,20.277-5.918,29.451c-3.948,9.177-9.359,17.176-16.239,23.997
			c-6.881,6.826-14.911,12.193-24.084,16.102c-9.177,3.909-18.992,5.867-29.451,5.867c-10.46,0-20.278-1.957-29.45-5.867
			c-9.178-3.909-17.203-9.276-24.084-16.102c-6.881-6.821-12.342-14.82-16.377-23.997c-3.853-8.988-5.78-18.716-5.78-29.176h31.928
			c0,11.93,3.992,22.157,11.974,30.69c7.981,8.532,18.579,12.704,31.79,12.523c14.493,0,25.365-4.219,32.616-12.661
			c7.247-8.438,10.873-18.716,10.873-30.827c0.18-14.128-5.002-25.64-15.551-34.543c-10.554-8.898-24.084-13.349-40.599-13.349
			v-26.423l22.295-16.239H210.1v-32.478H332.032z"/>
	</g>
</g>
</svg>
