<?xml version="1.0" encoding="utf-8"?>
<!-- Generator: Adobe Illustrator 17.0.0, SVG Export Plug-In . SVG Version: 6.00 Build 0)  -->
<!DOCTYPE svg PUBLIC "-//W3C//DTD SVG 1.1 Tiny//EN" "http://www.w3.org/Graphics/SVG/1.1/DTD/svg11-tiny.dtd">
<svg version="1.1" baseProfile="tiny" id="Layer_1" xmlns="http://www.w3.org/2000/svg" xmlns:xlink="http://www.w3.org/1999/xlink"
	 x="0px" y="0px" width="480px" height="480px" viewBox="0 0 480 480" overflow="scroll" xml:space="preserve">
<rect fill="#FFB000" width="480" height="480"/>
<line fill="none" stroke="#000000" stroke-width="7.4199" stroke-miterlimit="10" x1="174.502" y1="385.5" x2="174.502" y2="14.499"/>
<g>
	<path fill="#FFFFFF" d="M416.5,387.5c-0.494,0-0.982-0.184-1.361-0.534c-11.117-10.324-169.036-37.06-228.947-46.49
		c-0.766-0.12-1.393-0.673-1.609-1.418c-0.216-0.744,0.017-1.547,0.599-2.059c19.873-17.488,2.23-231.359-6.245-312.291
		c-0.064-0.61,0.156-1.216,0.596-1.644c0.376-0.365,0.876-0.565,1.393-0.565c0.089,0,0.178,0.006,0.268,0.018
		c47.794,6.452,90.029,29.619,125.531,68.859c28.31,31.289,52.414,72.812,71.643,123.413
		c32.687,86.017,40.055,169.707,40.126,170.542c0.069,0.823-0.374,1.604-1.117,1.966C417.098,387.434,416.798,387.5,416.5,387.5z"/>
	<path d="M180.926,24.5c207.426,28,235.574,361,235.574,361c-14-13-229.997-47-229.997-47C211.503,316.5,180.926,24.5,180.926,24.5
		 M180.926,20.5c-1.033,0-2.034,0.401-2.786,1.13c-0.881,0.855-1.32,2.066-1.192,3.287c0.076,0.729,7.689,73.799,12.15,148.595
		c2.617,43.868,3.653,79.723,3.081,106.569c-0.943,44.239-6.132,53.492-8.319,55.417c-1.164,1.025-1.631,2.63-1.199,4.119
		c0.433,1.489,1.687,2.594,3.219,2.835c0.54,0.085,54.602,8.61,109.668,18.612c32.31,5.868,58.631,11.087,78.232,15.512
		c33.381,7.536,39.054,10.98,39.997,11.856c0.756,0.702,1.734,1.069,2.723,1.069c0.595,0,1.193-0.132,1.751-0.404
		c1.485-0.724,2.373-2.286,2.234-3.933c-0.071-0.838-7.464-84.807-40.249-171.084c-19.317-50.835-43.551-92.569-72.028-124.044
		c-35.828-39.6-78.472-62.983-126.747-69.499C181.283,20.512,181.104,20.5,180.926,20.5L180.926,20.5z"/>
</g>
<polygon fill="#FFFFFF" points="128.192,144.442 186,150.128 186,341.408 153,341.06 153,178.033 120.26,181.17 "/>
<path fill="#FFB000" d="M205.235,144.467L210.1,181h73.925L262,197.384v26.313c0,0,38.885,5.098,46.645,19.228
	c7.76,14.131,11.186,54.195-11.301,63.485S239.347,323,231.018,273h-32.232c0,0,7.374,77.229,87.936,73.517
	s65.412-90.367,59.348-103.294c0,0-10.675-36.935-41.991-41.086L332,181.144v-32.539L205.235,144.467z"/>
<path fill="none" stroke="#000000" stroke-width="3.2642" stroke-miterlimit="10" d="M332.032,148.666v0.275l0.276-0.275v32.478
	l-28.075,20.919c11.561,3.673,20.686,9.268,27.387,16.79c6.696,7.525,11.512,15.598,14.45,24.221
	c2.932,8.627,4.404,18.165,4.404,28.625c0,10.459-1.974,20.277-5.918,29.451c-3.948,9.177-9.359,17.176-16.239,23.997
	c-6.881,6.826-14.911,12.193-24.084,16.102c-9.177,3.909-18.992,5.867-29.451,5.867c-10.46,0-20.278-1.957-29.45-5.867
	c-9.178-3.909-17.203-9.276-24.084-16.102c-6.881-6.821-12.342-14.82-16.377-23.997c-3.853-8.988-5.78-18.716-5.78-29.176h31.928
	c0,11.93,3.992,22.157,11.974,30.69c7.981,8.532,18.579,12.704,31.79,12.523c14.493,0,25.365-4.219,32.616-12.661
	c7.247-8.438,10.873-18.716,10.873-30.827c0.18-14.128-5.002-25.64-15.551-34.543c-10.554-8.898-24.084-13.349-40.599-13.349
	v-26.423l22.295-16.239H210.1v-32.478h121.932V148.666z"/>
<path fill="none" stroke="#000000" stroke-width="3.2642" stroke-miterlimit="10" d="M180.926,148.39v192.67h-31.928V180.318
	h-24.772V148.39H180.926z"/>
<path d="M9.49,367.517c65.906,6.934,424.54,44.48,467.51,45.038V477H140.588L9.49,367.517 M0,363.5L139.5,480H480v-70.5
	c-0.521,0.041-1.217,0.061-2.09,0.061C436.109,409.561,0,363.5,0,363.5L0,363.5z"/>
<line fill="none" stroke="#000000" stroke-width="3" stroke-miterlimit="10" x1="56.014" y1="410.279" x2="480" y2="434.5"/>
<path fill="none" stroke="#000000" stroke-miterlimit="10" d="M75.5,385.5c0,0-14,7-8,10s9,3,17,0s18,1.5,21,2.25
	s13.452-1.75,18.726,0"/>
</svg>
