<?xml version="1.0" encoding="utf-8"?>
<!-- Generator: Adobe Illustrator 17.0.0, SVG Export Plug-In . SVG Version: 6.00 Build 0)  -->
<!DOCTYPE svg PUBLIC "-//W3C//DTD SVG 1.1 Tiny//EN" "http://www.w3.org/Graphics/SVG/1.1/DTD/svg11-tiny.dtd">
<svg version="1.1" baseProfile="tiny" id="Layer_1" xmlns="http://www.w3.org/2000/svg" xmlns:xlink="http://www.w3.org/1999/xlink"
	 x="0px" y="0px" width="480px" height="480px" viewBox="0 0 480 480" overflow="scroll" xml:space="preserve">
<rect fill="#FFB000" width="480" height="480"/>
<g>
	<g>
		
			<rect x="158.148" y="94.449" transform="matrix(-0.2857 -0.9583 0.9583 -0.2857 86.2888 545.2139)" fill="#FFB000" stroke="#000000" stroke-width="3.1031" stroke-miterlimit="10" width="176.376" height="292"/>
		
			<rect x="169.107" y="104.603" transform="matrix(-0.2857 -0.9583 0.9583 -0.2857 86.9107 546.2229)" fill="none" stroke="#000000" stroke-width="2.8163" stroke-miterlimit="10" width="155.832" height="272.236"/>
	</g>
	<g>
		
			<rect x="158.13" y="94.436" transform="matrix(-0.8797 -0.4756 0.4756 -0.8797 348.6581 569.1179)" fill="#FFB000" stroke="#000000" stroke-width="3.1031" stroke-miterlimit="10" width="176.394" height="292.03"/>
		
			<rect x="169.081" y="104.027" transform="matrix(-0.8797 -0.4756 0.4756 -0.8797 350.0725 568.8907)" fill="none" stroke="#000000" stroke-width="2.8163" stroke-miterlimit="10" width="155.848" height="272.264"/>
	</g>
	<g>
		
			<rect x="150.652" y="96.323" transform="matrix(-0.5666 -0.824 0.824 -0.5666 174.4936 576.44)" fill="#FFB000" stroke="#000000" stroke-width="3.1031" stroke-miterlimit="10" width="176.384" height="292.014"/>
		<circle fill="none" stroke="#000000" stroke-width="3.3377" stroke-miterlimit="10" cx="290.26" cy="199.188" r="25.814"/>
		<polygon fill="#FFFFFF" points="133.312,325.794 395.875,229.443 171.555,383.71 		"/>
		<g>
			<path fill="none" stroke="#000000" stroke-width="2.8144" stroke-miterlimit="10" d="M133.312,325.794
				c0,0-0.758-40.433,16.893-60.849c17.652-20.416-11.078,30.616-4.864,59.359L133.312,325.794z"/>
			<path fill="none" stroke="#000000" stroke-width="2.8144" stroke-miterlimit="10" d="M153.295,260.11
				c0,0-23.39,0.388-35.152,20.29"/>
			<path fill="none" stroke="#000000" stroke-width="2.8144" stroke-miterlimit="10" d="M152.936,257.212
				c0,0-9.411-14.459-28.439-6.895"/>
			<path fill="none" stroke="#000000" stroke-width="2.8144" stroke-miterlimit="10" d="M157.758,259.558
				c0,0,7.504-9.5,23.069-2.971"/>
			<path fill="none" stroke="#000000" stroke-width="2.8144" stroke-miterlimit="10" d="M155.519,255.493
				c0,0,3.204-16.188,21.094-18.922"/>
			<path fill="none" stroke="#000000" stroke-width="2.8144" stroke-miterlimit="10" d="M158.246,263.499
				c0,0,9.834,2.307,17.35,13.936"/>
		</g>
		<path fill="none" stroke="#000000" stroke-width="3.3377" stroke-miterlimit="10" d="M136.794,328.879
			c0,0,193.131-85.502,253.454-99.418"/>
		
			<rect x="161.662" y="106.254" transform="matrix(-0.5666 -0.824 0.824 -0.5666 175.6101 577.1237)" fill="none" stroke="#000000" stroke-width="2.8163" stroke-miterlimit="10" width="155.84" height="272.25"/>
	</g>
</g>
<g>
	<path fill="#FFFFFF" d="M58.293,390.058c0,0-30.526,0.481-27.362,21.53c3.163,21.048,6.231,19.777,13.605,23.195
		c0,0,4.063,12.862,24.471,10.682c0,0,24.682,3.336,17.35-31.473l8.685-0.839c0,0-7.079-17.441-36.987-32.051L58.293,390.058z"/>
	<path fill="none" stroke="#000000" stroke-width="1.8034" stroke-miterlimit="10" d="M58.101,389.889
		c0,0-30.17,0.797-27.265,21.615s5.95,19.527,13.201,22.836c0,0,3.88,12.699,24.071,10.326c0,0,24.355,3.046,17.475-31.36
		l8.592-0.922c0,0-6.813-17.204-36.214-31.363L58.101,389.889z"/>
	<path fill="none" stroke="#000000" stroke-width="1.8034" stroke-miterlimit="10" d="M56.35,397.67c0,0-25.692,6.198-24.191,20.279
		"/>
	<path fill="none" stroke="#000000" stroke-width="1.8034" stroke-miterlimit="10" d="M66.08,405.024
		c0,0-29.147,5.891-25.176,28.182"/>
	<path fill="none" stroke="#000000" stroke-width="1.8034" stroke-miterlimit="10" d="M80.243,418.07
		c0,0-3.168,26.239-17.328,26.385"/>
	<path fill="none" stroke="#000000" stroke-width="1.8034" stroke-miterlimit="10" d="M71.381,409.74
		c0,0-2.461,29.634-25.063,28.283"/>
</g>
<circle cx="106.5" cy="431.263" r="2.893"/>
<circle cx="36.456" cy="170.098" r="2.893"/>
<circle cx="367.664" cy="330.199" r="2.893"/>
<circle cx="458.5" cy="78.15" r="2.893"/>
<circle cx="428.5" cy="124.274" r="2.893"/>
<circle cx="327.639" cy="20.004" r="2.893"/>
<circle cx="216.569" cy="20.004" r="2.893"/>
<circle cx="115.506" cy="81.042" r="2.893"/>
<circle cx="44.461" cy="71.036" r="2.893"/>
<circle cx="165.537" cy="71.036" r="2.893"/>
<circle cx="214.568" cy="60.029" r="2.893"/>
<circle cx="83.486" cy="50.023" r="2.893"/>
<circle cx="313.63" cy="59.028" r="2.893"/>
<circle cx="112.504" cy="139.079" r="2.893"/>
<circle cx="33.454" cy="269.161" r="2.893"/>
<circle cx="23.607" cy="17.111" r="2.893"/>
<circle cx="446.605" cy="47.13" r="2.893"/>
<circle cx="390.248" cy="59.028" r="2.893"/>
<path fill="none" stroke="#000000" stroke-width="3.3789" stroke-miterlimit="10" d="M222.544,492.919
	c0,0,67.511-92.643,121.956-104.849s63.156-18.072,90.378-61.417s46.278-67.174,51.178-73.771s4.9,0,4.9,0V492.92H222.544V492.919z"
	/>
<path fill="#FFB000" stroke="#000000" stroke-width="3.1031" stroke-miterlimit="10" d="M279.5,465.5c0,0,24-32.26,55-37.13
	s72.891-40.45,76.946-44.66"/>
<path fill="#FFB000" stroke="#000000" stroke-width="3.1031" stroke-miterlimit="10" d="M409.121,414.87
	c0,0,46.768-31.83,49.77-47.35c3.002-15.52,4.002-33.52,9.002-39.52"/>
<path fill="#FFB000" stroke="#000000" stroke-width="3.1031" stroke-miterlimit="10" d="M387.853,445.714
	c0,0-6.755,16.045-40.376,21.045"/>
<path fill="#FFB000" stroke="#000000" stroke-width="3.1031" stroke-miterlimit="10" d="M417.5,445.714
	c0,0,12.995-22.595,31.998-37.904C468.5,392.5,473.5,374.369,474.5,371.435"/>
<path fill="#FFB000" stroke="#000000" stroke-width="3.1031" stroke-miterlimit="10" d="M462.542,438.068
	c-5.252,10.786-31.246,23.246-37.66,39.538"/>
</svg>
