<?xml version="1.0" encoding="utf-8"?>
<!-- Generator: Adobe Illustrator 17.0.0, SVG Export Plug-In . SVG Version: 6.00 Build 0)  -->
<!DOCTYPE svg PUBLIC "-//W3C//DTD SVG 1.1 Tiny//EN" "http://www.w3.org/Graphics/SVG/1.1/DTD/svg11-tiny.dtd">
<svg version="1.1" baseProfile="tiny" id="Layer_1" xmlns="http://www.w3.org/2000/svg" xmlns:xlink="http://www.w3.org/1999/xlink"
	 x="0px" y="0px" width="480px" height="480px" viewBox="0 0 480 480" overflow="scroll" xml:space="preserve">
<rect fill="#FFB000" width="480" height="480"/>
<g>
	<g>
		
			<rect x="158.144" y="94.444" transform="matrix(-0.2857 -0.9583 0.9583 -0.2857 86.2884 545.2136)" fill="#FFB000" stroke="#000000" stroke-width="3.1031" stroke-miterlimit="10" width="176.382" height="292.01"/>
		
			<rect x="169.104" y="104.598" transform="matrix(-0.2857 -0.9583 0.9583 -0.2857 86.9108 546.223)" fill="none" stroke="#000000" stroke-width="2.8163" stroke-miterlimit="10" width="155.838" height="272.246"/>
	</g>
	<g>
		
			<rect x="158.144" y="94.444" transform="matrix(-0.8797 -0.4756 0.4756 -0.8797 348.6663 569.1201)" fill="#FFB000" stroke="#000000" stroke-width="3.1031" stroke-miterlimit="10" width="176.382" height="292.01"/>
		
			<rect x="169.095" y="104.032" transform="matrix(-0.8797 -0.4756 0.4756 -0.8797 350.0819 568.8919)" fill="none" stroke="#000000" stroke-width="2.8163" stroke-miterlimit="10" width="155.838" height="272.246"/>
	</g>
	<g>
		
			<rect x="150.634" y="96.321" transform="matrix(-0.5666 -0.824 0.824 -0.5666 174.4859 576.4218)" fill="#FFB000" stroke="#000000" stroke-width="3.1031" stroke-miterlimit="10" width="176.382" height="292.01"/>
		<circle fill="none" stroke="#000000" stroke-width="3.3377" stroke-miterlimit="10" cx="290.26" cy="199.188" r="25.814"/>
		<polygon fill="#FFFFFF" points="133.312,325.794 395.875,229.443 171.555,383.71 		"/>
		<g>
			<path fill="none" stroke="#000000" stroke-width="2.8144" stroke-miterlimit="10" d="M133.312,325.794
				c0,0-0.758-40.433,16.893-60.849c17.652-20.416-11.078,30.616-4.864,59.359L133.312,325.794z"/>
			<path fill="none" stroke="#000000" stroke-width="2.8144" stroke-miterlimit="10" d="M153.295,260.11
				c0,0-23.39,0.388-35.152,20.29"/>
			<path fill="none" stroke="#000000" stroke-width="2.8144" stroke-miterlimit="10" d="M152.936,257.212
				c0,0-9.411-14.459-28.439-6.895"/>
			<path fill="none" stroke="#000000" stroke-width="2.8144" stroke-miterlimit="10" d="M157.758,259.558
				c0,0,7.504-9.5,23.069-2.971"/>
			<path fill="none" stroke="#000000" stroke-width="2.8144" stroke-miterlimit="10" d="M155.519,255.493
				c0,0,3.204-16.188,21.094-18.922"/>
			<path fill="none" stroke="#000000" stroke-width="2.8144" stroke-miterlimit="10" d="M158.246,263.499
				c0,0,9.834,2.307,17.35,13.936"/>
		</g>
		<path fill="none" stroke="#000000" stroke-width="3.3377" stroke-miterlimit="10" d="M136.794,328.879
			c0,0,193.131-85.502,253.454-99.418"/>
		
			<rect x="161.644" y="106.251" transform="matrix(-0.5666 -0.824 0.824 -0.5666 175.6024 577.1053)" fill="none" stroke="#000000" stroke-width="2.8163" stroke-miterlimit="10" width="155.838" height="272.246"/>
	</g>
</g>
</svg>
