<?xml version="1.0" encoding="utf-8"?>
<!-- Generator: Adobe Illustrator 17.0.0, SVG Export Plug-In . SVG Version: 6.00 Build 0)  -->
<!DOCTYPE svg PUBLIC "-//W3C//DTD SVG 1.1 Tiny//EN" "http://www.w3.org/Graphics/SVG/1.1/DTD/svg11-tiny.dtd">
<svg version="1.1" baseProfile="tiny" id="Layer_1" xmlns="http://www.w3.org/2000/svg" xmlns:xlink="http://www.w3.org/1999/xlink"
	 x="0px" y="0px" width="480px" height="480px" viewBox="0 0 480 480" overflow="scroll" xml:space="preserve">
<rect fill="#FFB000" width="480" height="480"/>
<path fill="#FFB000" stroke="#000000" stroke-width="3" stroke-miterlimit="10" d="M448.5,360.5c0,6.627-5.373,12-12,12h-392
	c-6.627,0-12-5.373-12-12v-215c0-6.627,5.373-12,12-12h392c6.627,0,12,5.373,12,12V360.5z"/>
<polygon fill="#FFFFFF" points="264.167,203.75 261.584,226 430.084,226 430.584,202.375 "/>
<polygon fill="#FFFFFF" points="264.167,238.177 261.584,254 430.084,254 430.584,237.199 "/>
<polygon fill="#FFFFFF" points="264.167,267.917 261.584,288 430.084,288 430.584,266.676 "/>
<polygon fill="#FFFFFF" points="263.223,303.917 261.584,324 368.531,324 368.849,302.676 "/>
<rect x="261.5" y="203.5" fill="none" stroke="#000000" stroke-miterlimit="10" width="169" height="20"/>
<rect x="261.5" y="236.5" fill="none" stroke="#000000" stroke-miterlimit="10" width="169" height="20"/>
<rect x="261.5" y="269.5" fill="none" stroke="#000000" stroke-miterlimit="10" width="169" height="20"/>
<rect x="261.5" y="302.5" fill="none" stroke="#000000" stroke-miterlimit="10" width="107" height="20"/>
<rect x="32.5" y="156.5" fill="none" stroke="#000000" stroke-miterlimit="10" width="416" height="10"/>
<g>
	<path fill="#FFFFFF" d="M66.518,327.101c-1.365,0.327-2.763,0.372-4.193,0.139c-1.465-0.24-2.761-0.71-3.887-1.409
		c-1.127-0.698-2.098-1.646-2.916-2.844c-0.836-1.183-1.387-2.434-1.65-3.751c-0.264-1.317-0.247-2.712,0.049-4.185
		c0.275-1.459,0.813-2.776,1.611-3.957c0.798-1.179,1.858-2.22,3.179-3.121c0.599-0.408,1.208-0.756,1.829-1.044
		c0.621-0.287,1.252-0.514,1.895-0.68c0.663-0.181,1.322-0.29,1.977-0.327c0.654-0.038,1.307-0.022,1.96,0.047
		c0.756,0.09,1.482,0.244,2.177,0.465c0.696,0.222,1.35,0.517,1.964,0.885c0.614,0.368,1.177,0.783,1.692,1.25
		c0.515,0.466,0.972,0.971,1.373,1.513c0.014,0.021,0.029,0.042,0.042,0.063c0.014,0.021,0.025,0.036,0.032,0.046
		c0.007,0.011,0.018,0.026,0.031,0.047c0.015,0.021,0.029,0.041,0.042,0.062c0.015,0.021,0.025,0.036,0.032,0.047
		c0.007,0.011,0.018,0.025,0.031,0.046c0.507,0.743,0.901,1.533,1.184,2.369c0.282,0.836,0.471,1.721,0.563,2.654
		c0.093,0.935,0.044,1.86-0.147,2.777c-0.191,0.918-0.507,1.828-0.948,2.733c-0.19,0.433-0.42,0.848-0.694,1.245
		c-0.272,0.398-0.595,0.769-0.966,1.111c-0.321,0.371-0.671,0.724-1.049,1.057c-0.378,0.332-0.783,0.647-1.217,0.942l0.021,0.031
		C69.223,326.178,67.883,326.775,66.518,327.101z M63.209,319.423c0.364,0.268,0.76,0.45,1.191,0.55
		c0.431,0.1,0.827,0.115,1.19,0.049c0.363-0.065,0.71-0.212,1.04-0.438c0.021-0.014,0.041-0.027,0.062-0.042
		c0.02-0.014,0.041-0.027,0.062-0.042c0.041-0.028,0.072-0.049,0.093-0.063c0.041-0.028,0.079-0.061,0.113-0.1
		c0.034-0.038,0.064-0.082,0.092-0.131c0.24-0.225,0.43-0.468,0.569-0.728c0.14-0.263,0.218-0.536,0.236-0.82
		c0.039-0.298,0.024-0.605-0.042-0.925c-0.065-0.317-0.19-0.655-0.374-1.014c-0.014-0.021-0.027-0.041-0.042-0.062
		c-0.014-0.021-0.025-0.059-0.032-0.114c-0.015-0.021-0.032-0.047-0.053-0.078c-0.021-0.031-0.039-0.057-0.053-0.077
		c-0.028-0.041-0.049-0.072-0.063-0.093c-0.015-0.021-0.025-0.059-0.033-0.114c-0.014-0.021-0.031-0.046-0.052-0.076
		c-0.021-0.032-0.039-0.058-0.053-0.078c-0.099-0.145-0.205-0.276-0.316-0.397c-0.112-0.12-0.231-0.229-0.357-0.323
		c-0.105-0.109-0.226-0.209-0.361-0.298c-0.136-0.088-0.271-0.163-0.403-0.225c-0.264-0.121-0.527-0.207-0.788-0.257
		c-0.26-0.049-0.501-0.058-0.723-0.028c-0.236,0.01-0.464,0.052-0.685,0.127c-0.22,0.075-0.435,0.184-0.641,0.323
		c-0.207,0.142-0.39,0.305-0.551,0.489c-0.162,0.186-0.289,0.386-0.383,0.602c-0.109,0.196-0.183,0.42-0.222,0.673
		c-0.04,0.254-0.049,0.527-0.033,0.816c0.008,0.146,0.029,0.299,0.062,0.457c0.033,0.159,0.071,0.315,0.114,0.467
		c0.063,0.138,0.131,0.28,0.202,0.43c0.071,0.148,0.163,0.304,0.276,0.47l-0.021-0.031C62.519,318.79,62.846,319.158,63.209,319.423
		z"/>
	<path fill="#FFFFFF" d="M80.731,316.047c-0.25-0.101-0.498-0.22-0.742-0.355c-0.238-0.171-0.451-0.351-0.64-0.539
		c-0.189-0.188-0.361-0.396-0.517-0.624l-7.053-10.342c-0.323-0.474-0.545-0.966-0.665-1.474s-0.127-1.04-0.022-1.595
		c0.105-0.556,0.292-1.047,0.561-1.473c0.27-0.425,0.621-0.786,1.054-1.082l0.031-0.021c0.021-0.015,0.041-0.028,0.062-0.043
		c0.02-0.014,0.041-0.027,0.062-0.042l3.865-0.187l-0.084-0.124c0.02-0.014,0.032-0.029,0.036-0.047
		c0.004-0.017,0.008-0.043,0.015-0.078c0.021-0.014,0.032-0.029,0.036-0.047c0.003-0.017,0.009-0.043,0.015-0.079
		c0.007-0.033,0.017-0.063,0.03-0.088c0.014-0.023,0.023-0.055,0.031-0.089c0.02-0.014,0.038-0.032,0.05-0.058
		c0.014-0.024,0.024-0.054,0.031-0.089c0.196-0.466,0.411-0.893,0.646-1.28c0.234-0.387,0.493-0.751,0.773-1.095
		c0.28-0.342,0.581-0.667,0.899-0.977c0.318-0.308,0.653-0.581,1.004-0.821c0.124-0.084,0.252-0.163,0.383-0.237
		c0.13-0.074,0.266-0.143,0.403-0.207c0.138-0.063,0.273-0.133,0.403-0.207c0.132-0.074,0.267-0.143,0.404-0.207
		c0.897-0.369,1.764-0.583,2.602-0.642c0.839-0.057,1.667,0.029,2.488,0.255c0.805,0.207,1.53,0.537,2.172,0.99
		c0.642,0.454,1.189,1.012,1.64,1.673l5.385,7.895c0.338,0.496,0.561,1.002,0.67,1.516c0.109,0.515,0.102,1.059-0.024,1.628
		c-0.106,0.555-0.306,1.048-0.603,1.477c-0.297,0.43-0.676,0.816-1.137,1.161c-0.495,0.339-0.994,0.571-1.495,0.702
		c-0.5,0.13-1.04,0.15-1.616,0.059c-0.569-0.125-1.08-0.329-1.529-0.613c-0.45-0.282-0.836-0.66-1.161-1.136l-4.414-6.471
		c-0.056-0.083-0.139-0.17-0.247-0.263s-0.219-0.176-0.33-0.252c-0.113-0.075-0.23-0.138-0.355-0.188
		c-0.125-0.05-0.258-0.089-0.396-0.115c-0.153-0.046-0.297-0.069-0.432-0.067c-0.135,0.001-0.269,0.017-0.4,0.045
		c-0.132,0.029-0.261,0.073-0.389,0.129c-0.127,0.057-0.243,0.121-0.346,0.191c-0.104,0.07-0.205,0.154-0.304,0.252
		c-0.1,0.1-0.187,0.203-0.262,0.314c-0.075,0.113-0.138,0.231-0.189,0.356c-0.05,0.124-0.089,0.258-0.115,0.396
		c-0.026,0.139-0.04,0.285-0.042,0.438s0.012,0.294,0.041,0.426c0.029,0.132,0.072,0.261,0.129,0.389s0.121,0.242,0.191,0.346
		l4.351,6.378c0.169,0.248,0.306,0.495,0.413,0.739c0.106,0.245,0.185,0.517,0.237,0.814c0.058,0.262,0.088,0.529,0.092,0.799
		c0.002,0.27-0.022,0.545-0.075,0.822s-0.129,0.542-0.23,0.792c-0.102,0.251-0.245,0.484-0.43,0.701
		c-0.164,0.203-0.341,0.398-0.529,0.588c-0.189,0.188-0.396,0.361-0.624,0.516c-0.206,0.142-0.433,0.265-0.677,0.372
		c-0.246,0.105-0.492,0.199-0.741,0.277c-0.249,0.079-0.513,0.124-0.793,0.133c-0.281,0.011-0.561-0.011-0.838-0.063l-0.021-0.031
		C81.228,316.221,80.981,316.148,80.731,316.047z"/>
	<path fill="#FFFFFF" d="M100.947,279.506c0.414-0.146,0.854-0.211,1.318-0.195c0.45-0.005,0.873,0.062,1.27,0.2
		c0.396,0.137,0.759,0.336,1.087,0.596l5.534,4.256l-1.994-6.715c-0.108-0.38-0.15-0.774-0.127-1.184
		c0.023-0.408,0.119-0.823,0.288-1.241c0.134-0.424,0.337-0.803,0.607-1.139c0.27-0.335,0.601-0.637,0.993-0.904l0.031-0.021
		l0.031-0.021c0.489-0.304,0.996-0.514,1.522-0.63c0.525-0.116,1.073-0.111,1.643,0.014c0.555,0.105,1.05,0.298,1.482,0.577
		c0.433,0.279,0.811,0.656,1.134,1.131c0.015,0.021,0.025,0.036,0.032,0.047s0.018,0.025,0.032,0.047
		c0.014,0.02,0.027,0.041,0.041,0.061c-0.006,0.036,0.004,0.073,0.033,0.114c0.014,0.021,0.025,0.037,0.032,0.047
		c0.007,0.011,0.018,0.026,0.032,0.047c0.063,0.138,0.124,0.271,0.181,0.398c0.057,0.128,0.1,0.257,0.129,0.389
		c0.05,0.116,0.083,0.245,0.103,0.384c0.019,0.139,0.042,0.272,0.071,0.403l1.696,12.862c0.089,0.575,0.125,1.094,0.11,1.559
		c-0.016,0.465-0.095,0.881-0.236,1.25c-0.127,0.389-0.313,0.727-0.556,1.014s-0.529,0.543-0.859,0.769
		c-0.042,0.028-0.088,0.06-0.139,0.095c-0.052,0.035-0.105,0.057-0.161,0.064c-0.062,0.042-0.123,0.076-0.181,0.1
		c-0.059,0.025-0.108,0.052-0.15,0.08c-0.097,0.036-0.206,0.087-0.325,0.154c-0.122,0.066-0.24,0.125-0.357,0.175
		c-0.193,0.072-0.391,0.115-0.591,0.132c-0.201,0.017-0.392,0.024-0.571,0.026c-0.194-0.019-0.396-0.048-0.604-0.087
		c-0.209-0.039-0.438-0.11-0.688-0.211c-0.104-0.021-0.208-0.048-0.308-0.086c-0.101-0.036-0.2-0.082-0.297-0.137
		c-0.098-0.054-0.205-0.11-0.319-0.169c-0.115-0.058-0.228-0.123-0.339-0.197l-11.398-6.336c-0.098-0.054-0.197-0.122-0.298-0.204
		c-0.102-0.082-0.198-0.168-0.289-0.257c-0.112-0.075-0.211-0.166-0.299-0.272c-0.087-0.106-0.185-0.215-0.289-0.324
		c-0.015-0.021-0.025-0.037-0.032-0.047c-0.007-0.01-0.018-0.025-0.032-0.047c-0.014-0.02-0.024-0.035-0.031-0.047
		c-0.007-0.01-0.028-0.018-0.063-0.025c-0.014-0.02-0.023-0.035-0.031-0.046c-0.007-0.01-0.018-0.025-0.031-0.047
		c-0.014-0.02-0.028-0.041-0.043-0.062c-0.014-0.021-0.027-0.041-0.042-0.062c-0.289-0.468-0.495-0.948-0.618-1.438
		c-0.124-0.491-0.133-1.014-0.027-1.569c0.084-0.542,0.272-1.031,0.562-1.472c0.29-0.439,0.665-0.832,1.125-1.176l-0.021-0.031
		C100.123,279.85,100.532,279.652,100.947,279.506z"/>
	<path fill="#FFFFFF" d="M120.761,265.855c0.055-0.052,0.116-0.117,0.185-0.194c0.062-0.042,0.121-0.089,0.176-0.142
		c0.055-0.053,0.113-0.101,0.175-0.143c0.11-0.105,0.224-0.204,0.34-0.301c0.117-0.094,0.237-0.184,0.361-0.268
		c0.392-0.268,0.785-0.489,1.178-0.668c0.393-0.178,0.797-0.317,1.212-0.418c0.415-0.102,0.825-0.155,1.23-0.159
		c0.406-0.004,0.81,0.023,1.212,0.081l0.042,0.062l1.814-3.459c0.041-0.028,0.074-0.058,0.098-0.09s0.039-0.064,0.046-0.099
		c0.027-0.05,0.058-0.093,0.092-0.132c0.034-0.038,0.071-0.071,0.113-0.1c0.02-0.014,0.041-0.028,0.062-0.042
		c0.021-0.015,0.034-0.039,0.041-0.073c0.042-0.028,0.072-0.05,0.093-0.063c0.02-0.015,0.041-0.028,0.062-0.043
		c0.021-0.014,0.035-0.037,0.041-0.072c0.041-0.028,0.072-0.049,0.093-0.063c0.103-0.07,0.222-0.129,0.357-0.176
		c0.134-0.046,0.267-0.084,0.399-0.113c0.131-0.029,0.269-0.048,0.415-0.056c0.146-0.009,0.287,0,0.426,0.025
		c0.347,0.066,0.68,0.166,0.996,0.298c0.316,0.131,0.618,0.297,0.904,0.494c0.287,0.197,0.556,0.414,0.807,0.65
		c0.252,0.236,0.477,0.5,0.674,0.789l7.075,10.372c0.366,0.538,0.612,1.064,0.739,1.583c0.127,0.519,0.141,1.038,0.042,1.559
		c-0.084,0.542-0.257,1.008-0.521,1.398c-0.263,0.391-0.601,0.728-1.013,1.009c-0.021,0.015-0.042,0.028-0.062,0.042
		c-0.021,0.015-0.036,0.025-0.046,0.032c-0.011,0.007-0.026,0.018-0.047,0.031c-0.035-0.007-0.062-0.003-0.082,0.011
		c-0.021,0.015-0.037,0.025-0.046,0.032c-0.011,0.007-0.026,0.018-0.047,0.031l-3.895,0.343l0.105,0.154
		c-0.059,0.403-0.163,0.793-0.315,1.168c-0.152,0.376-0.341,0.731-0.565,1.066c-0.253,0.294-0.542,0.604-0.864,0.93
		c-0.322,0.326-0.69,0.63-1.103,0.911c-0.145,0.099-0.287,0.188-0.428,0.27c-0.142,0.081-0.292,0.16-0.45,0.238
		c-0.083,0.056-0.164,0.104-0.243,0.143c-0.079,0.04-0.157,0.069-0.232,0.091c-0.083,0.057-0.164,0.104-0.243,0.144
		c-0.08,0.038-0.168,0.075-0.264,0.112c-0.518,0.262-1.071,0.457-1.662,0.589c-0.591,0.131-1.209,0.189-1.854,0.175
		c-0.645-0.014-1.291-0.086-1.941-0.218c-0.649-0.131-1.309-0.333-1.976-0.603c-0.446-0.211-0.88-0.436-1.301-0.678
		c-0.422-0.24-0.819-0.523-1.189-0.845c-0.405-0.329-0.775-0.682-1.108-1.06c-0.333-0.377-0.648-0.782-0.944-1.217
		c-0.014-0.021-0.027-0.04-0.042-0.062c-0.014-0.02-0.028-0.041-0.042-0.062c-0.028-0.041-0.049-0.072-0.063-0.093
		c-0.028-0.041-0.056-0.083-0.085-0.124c-0.028-0.042-0.056-0.083-0.084-0.124c-0.677-1.081-1.154-2.192-1.434-3.332
		c-0.279-1.141-0.359-2.312-0.24-3.511c0.119-1.2,0.397-2.29,0.834-3.268c0.436-0.979,1.042-1.854,1.817-2.625l-0.021-0.029
		C120.641,265.945,120.706,265.908,120.761,265.855z M127.137,275.004c0.133,0.152,0.28,0.278,0.44,0.379
		c0.14,0.118,0.301,0.22,0.482,0.309c0.181,0.088,0.365,0.158,0.553,0.211c0.202,0.075,0.405,0.117,0.609,0.129
		c0.205,0.013,0.4-0.001,0.587-0.037c0.222-0.029,0.421-0.082,0.596-0.157c0.176-0.075,0.336-0.16,0.481-0.259
		c0.021-0.015,0.041-0.028,0.062-0.043c0.021-0.014,0.042-0.027,0.063-0.042c0.02-0.014,0.041-0.028,0.062-0.042
		c0.151-0.134,0.293-0.291,0.427-0.473c0.133-0.182,0.247-0.38,0.342-0.597c0.094-0.216,0.16-0.44,0.195-0.677
		c0.036-0.236,0.034-0.493-0.003-0.771c-0.001-0.09-0.01-0.181-0.028-0.274c-0.019-0.094-0.046-0.188-0.082-0.285
		c-0.001-0.091-0.024-0.179-0.07-0.27c-0.046-0.09-0.087-0.183-0.123-0.279c-0.014-0.021-0.028-0.041-0.042-0.063
		c-0.014-0.02-0.025-0.058-0.032-0.114c-0.014-0.02-0.028-0.041-0.042-0.061c-0.014-0.021-0.028-0.042-0.042-0.063
		c-0.014-0.021-0.028-0.041-0.042-0.063c-0.014-0.02-0.025-0.058-0.032-0.114c-0.014-0.02-0.028-0.041-0.043-0.062
		c-0.014-0.021-0.027-0.041-0.042-0.063c-0.014-0.021-0.024-0.035-0.031-0.046s-0.018-0.025-0.032-0.047
		c-0.014-0.021-0.024-0.035-0.031-0.046s-0.018-0.025-0.032-0.047c-0.034-0.006-0.055-0.014-0.062-0.024s-0.018-0.025-0.032-0.047
		c-0.014-0.021-0.024-0.035-0.032-0.047c-0.006-0.01-0.017-0.024-0.031-0.046c-0.224-0.239-0.452-0.44-0.682-0.601
		c-0.231-0.16-0.471-0.291-0.722-0.393c-0.236-0.08-0.478-0.135-0.724-0.164c-0.247-0.028-0.49-0.021-0.733,0.023
		c-0.056,0.008-0.107,0.021-0.155,0.038c-0.049,0.018-0.101,0.03-0.156,0.038c-0.042,0.028-0.081,0.048-0.119,0.058
		c-0.038,0.011-0.085,0.021-0.141,0.027c-0.021,0.015-0.042,0.028-0.062,0.043c-0.021,0.014-0.048,0.018-0.083,0.012
		c-0.021,0.014-0.042,0.028-0.063,0.042c-0.021,0.015-0.041,0.028-0.062,0.042c-0.021,0.015-0.042,0.028-0.062,0.043
		c-0.021,0.014-0.048,0.018-0.083,0.011c-0.021,0.014-0.042,0.028-0.062,0.042s-0.042,0.028-0.062,0.042
		c-0.254,0.204-0.465,0.438-0.632,0.704c-0.167,0.265-0.291,0.561-0.37,0.887c-0.08,0.326-0.099,0.665-0.057,1.015
		s0.152,0.721,0.329,1.113c0.015,0.021,0.029,0.042,0.042,0.063c-0.006,0.035-0.006,0.058,0.001,0.067
		c0.007,0.011,0.018,0.026,0.031,0.047s0.028,0.041,0.042,0.062c0.015,0.021,0.028,0.042,0.042,0.063
		c0.015,0.02,0.028,0.041,0.042,0.062c-0.006,0.034-0.006,0.057,0.001,0.066c0.007,0.012,0.018,0.027,0.032,0.047
		c0.014,0.021,0.028,0.041,0.042,0.063c0.015,0.021,0.029,0.041,0.042,0.063l-0.021-0.031
		C126.867,274.674,127.004,274.852,127.137,275.004z"/>
	<path fill="#FFFFFF" d="M143.512,268.982c-0.365-0.158-0.715-0.351-1.05-0.575c-0.341-0.19-0.664-0.408-0.968-0.654
		c-0.305-0.248-0.593-0.504-0.866-0.771c-0.063-0.048-0.121-0.1-0.173-0.154s-0.1-0.113-0.142-0.175
		c-0.048-0.026-0.094-0.071-0.136-0.134c-0.042-0.062-0.085-0.124-0.126-0.186c-0.092-0.09-0.176-0.19-0.253-0.305
		c-0.077-0.113-0.158-0.232-0.243-0.356c-0.014-0.021-0.028-0.041-0.042-0.062l-0.021-0.031l-0.021-0.03
		c-0.043-0.063-0.088-0.129-0.138-0.202c-0.049-0.071-0.102-0.149-0.158-0.231c-0.042-0.063-0.083-0.132-0.122-0.212
		c-0.039-0.078-0.076-0.166-0.112-0.264c-0.226-0.42-0.413-0.86-0.56-1.319s-0.261-0.948-0.343-1.468
		c-0.103-0.504-0.159-1.018-0.167-1.541s0.008-1.042,0.051-1.556c0.033-0.173,0.063-0.352,0.088-0.536
		c0.026-0.183,0.056-0.361,0.088-0.537c0.034-0.083,0.06-0.168,0.076-0.255c0.016-0.086,0.034-0.182,0.054-0.286
		c0.034-0.083,0.064-0.172,0.091-0.266c0.026-0.094,0.057-0.183,0.09-0.267c0.195-0.557,0.429-1.101,0.701-1.634
		c0.271-0.533,0.606-1.041,1.002-1.522c0.362-0.49,0.795-0.952,1.3-1.388c0.504-0.434,1.057-0.855,1.656-1.265
		c0.103-0.07,0.211-0.144,0.325-0.222c0.113-0.077,0.232-0.158,0.356-0.243c0.124-0.084,0.251-0.163,0.382-0.237
		c0.132-0.074,0.266-0.143,0.403-0.207c0.965-0.536,1.846-0.918,2.645-1.145c0.798-0.229,1.533-0.313,2.206-0.259
		c0.638,0.05,1.197,0.204,1.679,0.466c0.48,0.263,0.877,0.62,1.186,1.074c0.015,0.021,0.029,0.042,0.043,0.062
		c0.014,0.021,0.027,0.041,0.042,0.063c0.014,0.021,0.028,0.041,0.042,0.062c0.015,0.021,0.028,0.042,0.042,0.062
		c0.015,0.021,0.025,0.037,0.032,0.047c0.007,0.011,0.018,0.026,0.031,0.046c-0.006,0.036-0.002,0.063,0.011,0.084
		c0.015,0.021,0.029,0.042,0.042,0.063c0.015,0.021,0.028,0.041,0.042,0.062c0.206,0.435,0.324,0.853,0.356,1.254
		c0.032,0.402-0.009,0.808-0.123,1.217c-0.127,0.391-0.312,0.751-0.555,1.082c-0.243,0.332-0.561,0.632-0.952,0.898l-0.031,0.021
		l-0.031,0.021c-0.021,0.014-0.042,0.028-0.062,0.042c-0.042,0.028-0.088,0.06-0.139,0.095c-0.052,0.035-0.098,0.067-0.139,0.095
		c-0.042,0.029-0.086,0.052-0.135,0.069c-0.048,0.02-0.1,0.031-0.155,0.038l-0.198,0.045l-0.931,0.363l-0.467,0.181l-0.734,0.32
		c-0.083,0.057-0.163,0.104-0.242,0.143c-0.08,0.039-0.15,0.08-0.212,0.122c-0.042,0.028-0.083,0.057-0.124,0.084
		c-0.042,0.028-0.079,0.039-0.114,0.032c-0.042,0.028-0.077,0.053-0.108,0.074c-0.031,0.021-0.067,0.046-0.108,0.074
		c-0.398,0.302-0.728,0.618-0.988,0.945c-0.259,0.33-0.425,0.685-0.497,1.066c-0.087,0.361-0.092,0.72-0.015,1.075
		c0.077,0.356,0.228,0.7,0.453,1.03c0.014,0.021,0.024,0.037,0.031,0.046c0.007,0.011,0.018,0.027,0.032,0.047
		c0.015,0.021,0.025,0.037,0.032,0.046c0.007,0.011,0.018,0.027,0.032,0.047c0.161,0.193,0.336,0.36,0.525,0.504
		c0.188,0.144,0.38,0.271,0.575,0.378c0.202,0.075,0.419,0.139,0.652,0.191c0.232,0.054,0.487,0.062,0.764,0.022
		c0.146-0.009,0.28-0.032,0.405-0.071c0.124-0.04,0.251-0.074,0.383-0.104c0.117-0.049,0.246-0.105,0.383-0.17
		c0.138-0.064,0.279-0.146,0.423-0.244c0.083-0.057,0.16-0.109,0.232-0.158c0.072-0.05,0.143-0.112,0.211-0.189
		c0.083-0.056,0.167-0.121,0.252-0.194c0.086-0.073,0.163-0.148,0.231-0.227l0.072-0.094l0.915-0.987
		c0.055-0.007,0.105-0.033,0.15-0.079c0.044-0.045,0.08-0.093,0.107-0.142c0.02-0.014,0.041-0.027,0.062-0.042
		c0.021-0.014,0.045-0.046,0.072-0.095c0.02-0.014,0.046-0.031,0.077-0.053c0.031-0.021,0.057-0.038,0.078-0.053
		c0.02-0.014,0.041-0.027,0.062-0.042c0.02-0.014,0.045-0.045,0.072-0.095c0.02-0.014,0.041-0.028,0.062-0.042
		c0.02-0.014,0.041-0.028,0.062-0.042c0.021-0.015,0.042-0.028,0.062-0.043c0.021-0.014,0.044-0.044,0.072-0.095
		c0.021-0.014,0.046-0.031,0.077-0.053c0.031-0.021,0.057-0.038,0.077-0.053c0.021-0.014,0.042-0.027,0.062-0.042
		c0.021-0.014,0.042-0.028,0.062-0.042s0.036-0.024,0.047-0.032c0.01-0.007,0.025-0.018,0.046-0.031s0.042-0.028,0.062-0.042
		c0.413-0.282,0.849-0.474,1.309-0.575c0.459-0.102,0.933-0.106,1.419-0.015c0.472,0.071,0.9,0.233,1.283,0.485
		c0.385,0.253,0.717,0.585,0.998,0.997c0.015,0.021,0.036,0.053,0.064,0.094c0.014,0.021,0.028,0.041,0.042,0.062
		c0.014,0.021,0.028,0.042,0.042,0.062c0.014,0.021,0.035,0.052,0.063,0.093c-0.006,0.035-0.002,0.063,0.012,0.084
		c0.014,0.021,0.028,0.041,0.042,0.063c0.241,0.531,0.351,1.091,0.329,1.68c-0.021,0.59-0.174,1.208-0.459,1.855
		c-0.305,0.661-0.817,1.328-1.538,2.002c-0.72,0.673-1.627,1.382-2.721,2.128c-0.882,0.571-1.739,1.043-2.574,1.415
		c-0.834,0.373-1.678,0.622-2.528,0.75c-0.837,0.147-1.672,0.188-2.504,0.119c-0.833-0.066-1.652-0.249-2.459-0.546l-0.021-0.03
		C144.256,269.286,143.878,269.142,143.512,268.982z"/>
	<path fill="#FFFFFF" d="M157.482,240.81c0.055-0.053,0.116-0.117,0.185-0.194c0.062-0.042,0.12-0.089,0.176-0.142
		c0.055-0.053,0.113-0.101,0.175-0.143c0.11-0.105,0.224-0.204,0.34-0.301c0.117-0.094,0.237-0.184,0.361-0.268
		c0.392-0.268,0.785-0.49,1.178-0.668c0.393-0.177,0.797-0.317,1.212-0.418c0.415-0.101,0.825-0.154,1.23-0.159
		c0.406-0.003,0.81,0.024,1.212,0.082l0.042,0.062l1.814-3.459c0.041-0.028,0.074-0.058,0.098-0.089s0.039-0.065,0.046-0.099
		c0.027-0.05,0.058-0.092,0.092-0.131c0.034-0.039,0.071-0.072,0.113-0.1c0.02-0.014,0.041-0.028,0.062-0.042
		c0.021-0.014,0.034-0.039,0.041-0.074c0.042-0.028,0.072-0.049,0.093-0.063c0.02-0.014,0.041-0.028,0.062-0.042
		c0.021-0.014,0.035-0.038,0.041-0.072c0.041-0.028,0.072-0.049,0.093-0.063c0.103-0.07,0.222-0.129,0.357-0.176
		c0.134-0.046,0.267-0.083,0.399-0.113c0.131-0.029,0.269-0.048,0.415-0.056c0.146-0.009,0.287,0,0.426,0.025
		c0.347,0.066,0.68,0.166,0.996,0.298c0.316,0.13,0.618,0.297,0.904,0.494c0.287,0.198,0.556,0.415,0.807,0.651
		c0.252,0.236,0.477,0.499,0.674,0.788l7.075,10.372c0.366,0.537,0.612,1.064,0.739,1.583c0.127,0.519,0.141,1.038,0.042,1.559
		c-0.084,0.542-0.257,1.008-0.521,1.398c-0.263,0.391-0.601,0.728-1.013,1.009c-0.021,0.015-0.042,0.028-0.062,0.042
		c-0.021,0.015-0.036,0.025-0.046,0.032c-0.011,0.007-0.026,0.018-0.047,0.031c-0.035-0.007-0.062-0.003-0.082,0.011
		c-0.021,0.015-0.037,0.025-0.046,0.032c-0.011,0.007-0.026,0.018-0.047,0.031l-3.895,0.343l0.105,0.154
		c-0.059,0.403-0.163,0.792-0.315,1.168c-0.152,0.376-0.341,0.731-0.565,1.066c-0.253,0.294-0.542,0.604-0.864,0.93
		c-0.322,0.325-0.69,0.63-1.103,0.911c-0.145,0.099-0.287,0.188-0.428,0.27c-0.142,0.081-0.292,0.16-0.45,0.238
		c-0.083,0.056-0.164,0.104-0.243,0.143c-0.079,0.039-0.157,0.069-0.232,0.091c-0.083,0.057-0.164,0.104-0.244,0.144
		c-0.079,0.038-0.167,0.075-0.263,0.112c-0.518,0.261-1.071,0.457-1.662,0.589c-0.591,0.131-1.209,0.189-1.854,0.176
		c-0.645-0.015-1.292-0.087-1.941-0.219c-0.649-0.131-1.309-0.333-1.976-0.603c-0.446-0.211-0.88-0.437-1.301-0.678
		c-0.422-0.241-0.819-0.523-1.189-0.845c-0.405-0.329-0.775-0.682-1.108-1.061c-0.334-0.376-0.648-0.781-0.944-1.216
		c-0.014-0.021-0.027-0.04-0.042-0.062c-0.014-0.02-0.028-0.041-0.042-0.062c-0.028-0.041-0.049-0.072-0.063-0.093
		c-0.028-0.041-0.056-0.083-0.085-0.124c-0.028-0.042-0.056-0.083-0.084-0.124c-0.677-1.081-1.154-2.192-1.434-3.332
		c-0.279-1.141-0.359-2.312-0.24-3.512c0.119-1.199,0.397-2.289,0.834-3.267c0.436-0.979,1.042-1.854,1.817-2.625l-0.021-0.03
		C157.362,240.9,157.427,240.862,157.482,240.81z M163.858,249.958c0.133,0.152,0.28,0.278,0.44,0.379
		c0.14,0.118,0.301,0.22,0.482,0.309c0.181,0.088,0.365,0.158,0.553,0.211c0.202,0.075,0.405,0.117,0.609,0.129
		c0.205,0.013,0.4-0.001,0.587-0.037c0.222-0.029,0.421-0.082,0.596-0.157c0.176-0.075,0.336-0.161,0.481-0.259
		c0.021-0.015,0.041-0.028,0.062-0.043c0.021-0.014,0.042-0.027,0.063-0.042c0.02-0.014,0.041-0.028,0.062-0.042
		c0.151-0.134,0.293-0.291,0.427-0.473c0.133-0.182,0.247-0.38,0.342-0.597c0.094-0.216,0.16-0.44,0.195-0.677
		c0.036-0.236,0.034-0.493-0.003-0.771c-0.001-0.09-0.01-0.181-0.028-0.274c-0.019-0.094-0.046-0.188-0.082-0.285
		c-0.001-0.091-0.024-0.18-0.07-0.27c-0.046-0.09-0.087-0.183-0.123-0.279c-0.014-0.021-0.028-0.041-0.042-0.063
		c-0.014-0.02-0.025-0.059-0.032-0.114c-0.014-0.02-0.028-0.041-0.042-0.061c-0.014-0.021-0.028-0.042-0.042-0.063
		c-0.014-0.021-0.028-0.041-0.042-0.063c-0.014-0.02-0.025-0.058-0.032-0.114c-0.014-0.02-0.028-0.041-0.042-0.062
		c-0.014-0.021-0.028-0.041-0.042-0.063c-0.014-0.021-0.024-0.035-0.031-0.046c-0.007-0.011-0.018-0.025-0.032-0.047
		c-0.014-0.021-0.024-0.035-0.031-0.046c-0.007-0.011-0.018-0.025-0.032-0.047c-0.035-0.006-0.055-0.014-0.063-0.024
		s-0.018-0.025-0.032-0.047c-0.014-0.021-0.024-0.035-0.032-0.047c-0.006-0.01-0.017-0.024-0.031-0.046
		c-0.224-0.239-0.452-0.44-0.682-0.601c-0.231-0.16-0.471-0.291-0.722-0.393c-0.236-0.08-0.478-0.135-0.724-0.164
		c-0.247-0.028-0.49-0.021-0.733,0.023c-0.056,0.008-0.107,0.021-0.155,0.038c-0.049,0.018-0.101,0.03-0.156,0.038
		c-0.042,0.028-0.081,0.048-0.119,0.059c-0.038,0.01-0.085,0.02-0.141,0.026c-0.021,0.015-0.042,0.028-0.062,0.042
		c-0.021,0.015-0.048,0.019-0.083,0.013c-0.021,0.014-0.042,0.028-0.062,0.042c-0.021,0.014-0.042,0.028-0.062,0.042
		c-0.021,0.015-0.042,0.028-0.062,0.042c-0.021,0.015-0.048,0.018-0.083,0.012c-0.021,0.014-0.042,0.028-0.062,0.042
		s-0.042,0.028-0.062,0.042c-0.254,0.204-0.465,0.438-0.632,0.704c-0.167,0.265-0.291,0.561-0.37,0.887
		c-0.08,0.326-0.099,0.665-0.057,1.015s0.152,0.721,0.329,1.113c0.015,0.021,0.029,0.042,0.042,0.063
		c-0.006,0.035-0.006,0.058,0.001,0.067c0.007,0.011,0.018,0.026,0.031,0.047c0.014,0.021,0.028,0.041,0.042,0.062
		c0.014,0.021,0.028,0.042,0.042,0.063c0.014,0.02,0.028,0.041,0.042,0.062c-0.006,0.034-0.006,0.057,0.001,0.066
		c0.007,0.011,0.018,0.026,0.032,0.047c0.014,0.021,0.028,0.041,0.042,0.062c0.015,0.021,0.029,0.042,0.042,0.063l-0.021-0.031
		C163.588,249.628,163.724,249.806,163.858,249.958z"/>
	<path fill="#FFFFFF" d="M170.789,232.617c0.085-0.208,0.198-0.407,0.342-0.595c0.144-0.188,0.294-0.367,0.452-0.536
		c0.158-0.168,0.339-0.322,0.546-0.463l0.289-0.242l-0.992-1.454c-0.141-0.207-0.269-0.438-0.382-0.693
		c-0.114-0.255-0.2-0.515-0.258-0.777c-0.052-0.298-0.079-0.583-0.083-0.853c-0.002-0.27,0.022-0.543,0.075-0.821
		c0.052-0.278,0.134-0.545,0.246-0.804c0.112-0.257,0.243-0.498,0.394-0.721c0.149-0.223,0.319-0.43,0.507-0.619
		c0.189-0.189,0.397-0.361,0.624-0.516c0.021-0.014,0.042-0.028,0.062-0.042c0.021-0.014,0.042-0.028,0.062-0.042
		s0.036-0.025,0.046-0.032s0.026-0.018,0.046-0.032c0.021-0.014,0.042-0.028,0.063-0.042c0.116-0.05,0.229-0.096,0.335-0.139
		c0.107-0.042,0.219-0.088,0.336-0.139c0.097-0.035,0.208-0.072,0.332-0.112s0.242-0.066,0.352-0.082
		c0.243-0.044,0.485-0.064,0.728-0.065c0.243,0.001,0.493,0.036,0.75,0.101c0.277,0.054,0.542,0.13,0.792,0.231
		c0.251,0.102,0.495,0.238,0.733,0.408c0.243,0.137,0.467,0.31,0.67,0.519c0.204,0.21,0.382,0.427,0.537,0.655l0.929,1.361
		l0.403-0.275c0.2-0.105,0.407-0.201,0.62-0.287c0.214-0.085,0.436-0.16,0.663-0.225c0.222-0.03,0.445-0.046,0.67-0.048
		c0.226-0.003,0.452,0.008,0.682,0.034c0.243,0.046,0.468,0.111,0.678,0.196c0.208,0.084,0.417,0.191,0.627,0.321
		c0.097,0.055,0.188,0.122,0.272,0.2c0.084,0.079,0.165,0.152,0.242,0.221c0.09,0.089,0.17,0.173,0.236,0.247
		c0.066,0.076,0.135,0.165,0.206,0.269c0.126,0.186,0.226,0.375,0.296,0.568c0.071,0.194,0.133,0.394,0.183,0.602
		c0.051,0.207,0.077,0.424,0.08,0.648c0.002,0.226-0.009,0.453-0.034,0.682c-0.047,0.243-0.111,0.47-0.196,0.677
		c-0.084,0.21-0.191,0.419-0.32,0.627c-0.13,0.21-0.269,0.404-0.42,0.582c-0.151,0.178-0.33,0.337-0.536,0.478l-0.455,0.266
		l5.301,7.771c0.169,0.248,0.306,0.495,0.413,0.738c0.107,0.245,0.186,0.517,0.237,0.814c0.059,0.262,0.093,0.534,0.103,0.814
		c0.01,0.28-0.012,0.56-0.064,0.838c-0.053,0.277-0.129,0.542-0.23,0.792c-0.102,0.251-0.245,0.484-0.43,0.701
		c-0.15,0.223-0.319,0.43-0.508,0.618c-0.189,0.189-0.396,0.362-0.624,0.517c-0.021,0.015-0.042,0.028-0.062,0.042
		c-0.021,0.015-0.036,0.025-0.046,0.032c-0.011,0.007-0.026,0.018-0.046,0.031c-0.021,0.015-0.042,0.028-0.062,0.042
		c-0.021,0.015-0.042,0.029-0.062,0.043c-0.221,0.119-0.441,0.217-0.662,0.293c-0.221,0.074-0.438,0.154-0.652,0.24
		c-0.242,0.045-0.488,0.061-0.737,0.049c-0.25-0.011-0.496-0.039-0.739-0.085c-0.278-0.053-0.545-0.135-0.803-0.246
		s-0.509-0.235-0.753-0.372c-0.237-0.171-0.45-0.35-0.64-0.539c-0.189-0.188-0.368-0.406-0.537-0.654l-5.343-7.833l-0.248,0.169
		c-0.192,0.163-0.406,0.292-0.64,0.392s-0.473,0.171-0.715,0.215c-0.263,0.059-0.515,0.088-0.757,0.086
		c-0.243,0-0.486-0.023-0.729-0.07c-0.188-0.054-0.381-0.126-0.579-0.217c-0.199-0.092-0.385-0.198-0.56-0.322
		c-0.175-0.123-0.342-0.258-0.503-0.405c-0.16-0.146-0.305-0.314-0.432-0.5c-0.07-0.104-0.128-0.2-0.174-0.289
		c-0.045-0.089-0.093-0.193-0.144-0.312c-0.035-0.096-0.07-0.201-0.102-0.315c-0.033-0.114-0.057-0.227-0.071-0.336
		c-0.03-0.222-0.046-0.445-0.049-0.67c-0.002-0.225-0.001-0.444,0.004-0.66l-0.021-0.031
		C170.625,233.032,170.705,232.827,170.789,232.617z"/>
	<path fill="#FFFFFF" d="M181.524,220.985c-0.265-0.12-0.526-0.261-0.785-0.418c-0.237-0.17-0.459-0.351-0.666-0.543
		c-0.207-0.191-0.395-0.412-0.563-0.659c-0.169-0.248-0.309-0.508-0.418-0.78c-0.111-0.272-0.202-0.55-0.274-0.834
		c-0.052-0.298-0.077-0.589-0.077-0.878c0-0.287,0.027-0.569,0.08-0.847c0.066-0.257,0.143-0.499,0.231-0.725
		c0.088-0.226,0.197-0.444,0.326-0.654c0.115-0.229,0.253-0.437,0.414-0.623c0.161-0.185,0.338-0.358,0.53-0.521
		c0.021-0.014,0.036-0.024,0.046-0.032c0.01-0.007,0.019-0.027,0.025-0.062c0.02-0.014,0.041-0.028,0.062-0.042
		c0.041-0.028,0.077-0.053,0.108-0.074c0.031-0.021,0.057-0.039,0.077-0.053c0.242-0.135,0.494-0.262,0.76-0.383
		c0.265-0.121,0.537-0.2,0.813-0.237c0.283-0.072,0.568-0.108,0.856-0.107c0.288,0,0.587,0.03,0.9,0.089
		c0.292,0.074,0.572,0.163,0.84,0.266c0.268,0.106,0.521,0.243,0.758,0.414c0.258,0.157,0.488,0.341,0.691,0.549
		c0.204,0.209,0.382,0.427,0.538,0.654c0.014,0.021,0.031,0.047,0.053,0.078s0.046,0.066,0.073,0.107
		c0.015,0.021,0.029,0.042,0.043,0.063c-0.007,0.035-0.006,0.057,0,0.068c0.007,0.011,0.018,0.025,0.031,0.046
		c0.121,0.22,0.222,0.447,0.304,0.679c0.082,0.23,0.134,0.474,0.159,0.73c0.044,0.242,0.065,0.485,0.064,0.727
		c-0.001,0.243-0.017,0.497-0.049,0.759c-0.059,0.312-0.144,0.598-0.256,0.855c-0.112,0.257-0.246,0.516-0.402,0.773
		c-0.17,0.238-0.357,0.463-0.559,0.677s-0.424,0.388-0.665,0.521c-0.021,0.014-0.046,0.032-0.078,0.053
		c-0.031,0.021-0.067,0.046-0.108,0.074c-0.021,0.014-0.042,0.028-0.063,0.042c-0.021,0.015-0.04,0.02-0.057,0.018
		c-0.018-0.004-0.037,0.002-0.057,0.016c-0.207,0.141-0.425,0.252-0.656,0.335c-0.232,0.082-0.468,0.145-0.71,0.188
		c-0.256,0.024-0.509,0.031-0.758,0.018c-0.25-0.01-0.506-0.031-0.771-0.064l-0.021-0.03
		C182.052,221.186,181.788,221.109,181.524,220.985z M196.315,239.048c-0.508,0.119-1.05,0.134-1.626,0.043
		c-0.556-0.104-1.053-0.302-1.493-0.593c-0.44-0.289-0.821-0.671-1.146-1.146l-7.074-10.373c-0.31-0.453-0.518-0.946-0.624-1.479
		c-0.105-0.532-0.106-1.077-0.001-1.632c0.111-0.591,0.315-1.101,0.613-1.531c0.296-0.429,0.682-0.805,1.157-1.129
		c0.488-0.303,0.991-0.51,1.506-0.619c0.516-0.108,1.058-0.101,1.627,0.024c0.576,0.091,1.084,0.281,1.524,0.572
		c0.439,0.29,0.821,0.672,1.145,1.146l6.99,10.248c0.338,0.496,0.562,1.002,0.671,1.516c0.109,0.515,0.108,1.069-0.003,1.659
		c-0.105,0.556-0.311,1.051-0.618,1.488c-0.308,0.436-0.698,0.816-1.173,1.141l0.021,0.03
		C197.321,238.716,196.823,238.927,196.315,239.048z"/>
	<path fill="#FFFFFF" d="M208.045,230.571c-1.365,0.327-2.763,0.372-4.193,0.138c-1.465-0.24-2.76-0.71-3.887-1.409
		c-1.126-0.698-2.098-1.646-2.915-2.844c-0.837-1.182-1.388-2.434-1.65-3.75c-0.264-1.317-0.248-2.712,0.049-4.185
		c0.275-1.458,0.813-2.776,1.611-3.958c0.798-1.179,1.858-2.219,3.179-3.12c0.599-0.408,1.208-0.757,1.83-1.044
		c0.62-0.288,1.252-0.514,1.895-0.681c0.663-0.18,1.322-0.289,1.977-0.327c0.655-0.039,1.307-0.023,1.96,0.047
		c0.757,0.089,1.482,0.244,2.178,0.465c0.695,0.221,1.35,0.516,1.964,0.884c0.614,0.368,1.177,0.784,1.692,1.25
		c0.514,0.466,0.972,0.971,1.372,1.514c0.014,0.021,0.029,0.042,0.042,0.063c0.014,0.021,0.025,0.036,0.032,0.046
		c0.007,0.011,0.018,0.026,0.031,0.047c0.015,0.021,0.029,0.041,0.042,0.062c0.015,0.021,0.025,0.036,0.032,0.047
		c0.007,0.011,0.018,0.025,0.031,0.046c0.507,0.743,0.901,1.533,1.185,2.368c0.282,0.836,0.47,1.721,0.563,2.655
		s0.044,1.86-0.147,2.776c-0.191,0.918-0.508,1.828-0.948,2.734c-0.189,0.432-0.42,0.847-0.694,1.244
		c-0.272,0.399-0.595,0.769-0.966,1.112c-0.321,0.371-0.671,0.723-1.049,1.056c-0.378,0.333-0.783,0.647-1.216,0.943l0.021,0.031
		C210.75,229.648,209.41,230.245,208.045,230.571z M204.736,222.892c0.363,0.267,0.76,0.45,1.191,0.549s0.827,0.116,1.19,0.05
		c0.363-0.066,0.71-0.212,1.041-0.438c0.02-0.014,0.041-0.028,0.062-0.042c0.021-0.014,0.041-0.028,0.062-0.042
		c0.042-0.028,0.072-0.049,0.093-0.063c0.041-0.028,0.079-0.061,0.113-0.099c0.035-0.039,0.065-0.083,0.092-0.131
		c0.24-0.225,0.43-0.468,0.569-0.728c0.14-0.262,0.218-0.535,0.236-0.819c0.039-0.298,0.024-0.606-0.042-0.925
		c-0.066-0.317-0.19-0.655-0.374-1.014c-0.014-0.021-0.028-0.041-0.042-0.062c-0.014-0.021-0.025-0.059-0.032-0.114
		c-0.015-0.021-0.032-0.047-0.053-0.078c-0.021-0.031-0.039-0.057-0.053-0.077c-0.028-0.041-0.049-0.072-0.063-0.093
		c-0.015-0.021-0.025-0.059-0.033-0.115c-0.014-0.021-0.031-0.046-0.053-0.076c-0.021-0.032-0.039-0.058-0.053-0.078
		c-0.099-0.145-0.204-0.276-0.316-0.397c-0.112-0.121-0.231-0.228-0.356-0.323c-0.105-0.11-0.226-0.209-0.362-0.298
		c-0.136-0.087-0.271-0.163-0.403-0.225c-0.264-0.121-0.527-0.207-0.788-0.257c-0.26-0.049-0.5-0.058-0.722-0.028
		c-0.236,0.01-0.464,0.052-0.686,0.127c-0.22,0.076-0.435,0.184-0.641,0.324c-0.207,0.141-0.39,0.304-0.551,0.489
		c-0.161,0.186-0.289,0.386-0.383,0.602c-0.108,0.196-0.183,0.419-0.222,0.672c-0.039,0.254-0.049,0.527-0.033,0.817
		c0.008,0.146,0.029,0.299,0.062,0.457c0.033,0.159,0.071,0.315,0.114,0.467c0.063,0.137,0.13,0.281,0.202,0.429
		c0.071,0.149,0.163,0.304,0.276,0.47l-0.021-0.031C204.047,222.259,204.373,222.627,204.736,222.892z"/>
	<path fill="#FFFFFF" d="M222.258,219.516c-0.251-0.101-0.498-0.22-0.742-0.356c-0.238-0.171-0.451-0.351-0.64-0.539
		c-0.19-0.188-0.361-0.396-0.517-0.624l-7.053-10.342c-0.323-0.474-0.546-0.966-0.666-1.474s-0.127-1.04-0.021-1.595
		c0.105-0.555,0.292-1.046,0.561-1.473c0.27-0.425,0.621-0.786,1.054-1.082l0.031-0.021c0.021-0.014,0.042-0.028,0.062-0.042
		c0.021-0.014,0.041-0.028,0.062-0.042l3.866-0.187l-0.085-0.124c0.021-0.014,0.032-0.029,0.036-0.047
		c0.003-0.017,0.008-0.043,0.015-0.078c0.021-0.014,0.033-0.029,0.036-0.047c0.003-0.017,0.008-0.043,0.015-0.079
		c0.006-0.033,0.017-0.064,0.03-0.088c0.013-0.023,0.023-0.055,0.03-0.089c0.021-0.014,0.038-0.032,0.051-0.058
		c0.014-0.023,0.024-0.054,0.031-0.088c0.196-0.465,0.412-0.893,0.646-1.28c0.235-0.387,0.493-0.751,0.773-1.094
		c0.281-0.343,0.581-0.668,0.899-0.977c0.318-0.308,0.653-0.582,1.005-0.822c0.124-0.084,0.251-0.163,0.382-0.238
		c0.13-0.074,0.266-0.143,0.403-0.207c0.138-0.064,0.272-0.133,0.403-0.208c0.131-0.074,0.266-0.143,0.403-0.207
		c0.897-0.37,1.765-0.583,2.602-0.641c0.839-0.057,1.668,0.028,2.488,0.255c0.806,0.206,1.53,0.536,2.173,0.989
		c0.642,0.455,1.188,1.012,1.639,1.673l5.385,7.895c0.338,0.496,0.562,1.001,0.671,1.516c0.109,0.515,0.102,1.058-0.024,1.627
		c-0.105,0.556-0.306,1.048-0.603,1.477c-0.297,0.43-0.677,0.816-1.137,1.162c-0.495,0.338-0.994,0.571-1.495,0.702
		c-0.5,0.13-1.039,0.15-1.615,0.059c-0.57-0.125-1.08-0.33-1.529-0.614c-0.45-0.283-0.836-0.66-1.161-1.136l-4.414-6.471
		c-0.056-0.083-0.138-0.17-0.247-0.263c-0.108-0.092-0.218-0.176-0.33-0.251c-0.112-0.075-0.23-0.138-0.355-0.188
		c-0.125-0.051-0.257-0.089-0.396-0.116c-0.152-0.046-0.297-0.069-0.432-0.067c-0.135,0.002-0.268,0.017-0.399,0.045
		c-0.132,0.029-0.261,0.073-0.389,0.128c-0.127,0.058-0.243,0.122-0.346,0.192c-0.104,0.071-0.205,0.154-0.304,0.252
		c-0.1,0.099-0.187,0.203-0.262,0.314c-0.075,0.113-0.138,0.231-0.188,0.356c-0.05,0.125-0.089,0.258-0.115,0.396
		s-0.04,0.285-0.042,0.437c-0.002,0.153,0.011,0.294,0.041,0.426c0.029,0.132,0.072,0.261,0.128,0.389
		c0.057,0.128,0.121,0.243,0.191,0.346l4.351,6.378c0.169,0.248,0.307,0.495,0.413,0.74c0.106,0.245,0.186,0.516,0.237,0.813
		c0.059,0.263,0.089,0.529,0.092,0.799s-0.022,0.544-0.075,0.822c-0.052,0.278-0.129,0.542-0.229,0.793
		c-0.102,0.25-0.245,0.484-0.43,0.7c-0.164,0.204-0.34,0.398-0.529,0.588c-0.188,0.189-0.396,0.361-0.623,0.516
		c-0.207,0.141-0.433,0.265-0.677,0.372c-0.246,0.105-0.492,0.199-0.741,0.277c-0.249,0.08-0.513,0.124-0.793,0.134
		c-0.281,0.01-0.561-0.012-0.838-0.064l-0.021-0.031C222.755,219.691,222.508,219.617,222.258,219.516z"/>
</g>
<g>
	<path fill="none" stroke="#000000" stroke-miterlimit="10" d="M67.718,328.438c-1.365,0.327-2.763,0.372-4.193,0.139
		c-1.465-0.24-2.761-0.71-3.887-1.409c-1.127-0.698-2.098-1.646-2.916-2.844c-0.836-1.183-1.387-2.434-1.65-3.751
		c-0.264-1.317-0.247-2.712,0.049-4.185c0.275-1.459,0.813-2.776,1.611-3.957c0.798-1.179,1.858-2.22,3.179-3.121
		c0.599-0.408,1.208-0.756,1.829-1.044c0.621-0.287,1.252-0.514,1.895-0.68c0.663-0.181,1.322-0.29,1.977-0.327
		c0.654-0.038,1.307-0.022,1.96,0.047c0.756,0.09,1.482,0.244,2.177,0.465c0.696,0.222,1.35,0.517,1.964,0.885
		c0.614,0.368,1.177,0.783,1.692,1.25c0.515,0.466,0.972,0.971,1.373,1.513c0.014,0.021,0.029,0.042,0.042,0.063
		c0.014,0.021,0.025,0.036,0.032,0.046c0.007,0.011,0.018,0.026,0.031,0.047c0.015,0.021,0.029,0.041,0.042,0.062
		c0.015,0.021,0.025,0.036,0.032,0.047c0.007,0.011,0.018,0.025,0.031,0.046c0.507,0.743,0.901,1.533,1.184,2.369
		c0.282,0.836,0.471,1.721,0.563,2.654c0.093,0.935,0.044,1.86-0.147,2.777c-0.191,0.918-0.507,1.828-0.948,2.733
		c-0.19,0.433-0.42,0.848-0.694,1.245c-0.272,0.398-0.595,0.769-0.966,1.111c-0.321,0.371-0.671,0.724-1.049,1.057
		c-0.378,0.332-0.783,0.647-1.217,0.942l0.021,0.031C70.423,327.515,69.084,328.111,67.718,328.438z M64.409,320.759
		c0.364,0.268,0.76,0.45,1.191,0.55c0.431,0.1,0.827,0.115,1.19,0.049c0.363-0.065,0.71-0.212,1.04-0.438
		c0.021-0.014,0.041-0.027,0.062-0.042c0.02-0.014,0.041-0.027,0.062-0.042c0.041-0.028,0.072-0.049,0.093-0.063
		c0.041-0.028,0.079-0.061,0.113-0.1c0.034-0.038,0.064-0.082,0.092-0.131c0.24-0.225,0.43-0.468,0.569-0.728
		c0.14-0.263,0.218-0.536,0.236-0.82c0.039-0.298,0.024-0.605-0.042-0.925c-0.065-0.317-0.19-0.655-0.374-1.014
		c-0.014-0.021-0.027-0.041-0.042-0.062c-0.014-0.021-0.025-0.059-0.032-0.114c-0.015-0.021-0.032-0.047-0.053-0.078
		c-0.021-0.031-0.039-0.057-0.053-0.077c-0.028-0.041-0.049-0.072-0.063-0.093c-0.015-0.021-0.025-0.059-0.033-0.114
		c-0.014-0.021-0.031-0.046-0.052-0.076c-0.021-0.032-0.039-0.058-0.053-0.078c-0.099-0.145-0.205-0.276-0.316-0.397
		c-0.112-0.12-0.231-0.229-0.357-0.323c-0.105-0.109-0.226-0.209-0.361-0.298c-0.136-0.088-0.271-0.163-0.403-0.225
		c-0.264-0.121-0.527-0.207-0.788-0.257c-0.26-0.049-0.501-0.058-0.723-0.028c-0.236,0.01-0.464,0.052-0.685,0.127
		c-0.22,0.075-0.435,0.184-0.641,0.323c-0.207,0.142-0.39,0.305-0.551,0.489c-0.162,0.186-0.289,0.386-0.383,0.602
		c-0.109,0.196-0.183,0.42-0.222,0.673c-0.04,0.254-0.049,0.527-0.033,0.816c0.008,0.146,0.029,0.299,0.062,0.457
		c0.033,0.159,0.071,0.315,0.114,0.467c0.063,0.138,0.131,0.28,0.202,0.43c0.071,0.148,0.163,0.304,0.276,0.47l-0.021-0.031
		C63.719,320.126,64.046,320.494,64.409,320.759z"/>
	<path fill="none" stroke="#000000" stroke-miterlimit="10" d="M81.931,317.383c-0.25-0.101-0.498-0.22-0.742-0.355
		c-0.238-0.171-0.451-0.351-0.64-0.539c-0.189-0.188-0.361-0.396-0.517-0.624l-7.053-10.342c-0.323-0.474-0.545-0.966-0.665-1.474
		s-0.127-1.04-0.022-1.595c0.105-0.556,0.292-1.047,0.561-1.473c0.27-0.425,0.621-0.786,1.054-1.082l0.031-0.021
		c0.021-0.015,0.041-0.028,0.062-0.043c0.02-0.014,0.041-0.027,0.062-0.042l3.865-0.187l-0.084-0.124
		c0.02-0.014,0.032-0.029,0.036-0.047c0.004-0.017,0.008-0.043,0.015-0.078c0.021-0.014,0.032-0.029,0.036-0.047
		c0.003-0.017,0.009-0.043,0.015-0.079c0.007-0.033,0.017-0.063,0.03-0.088c0.014-0.023,0.023-0.055,0.031-0.089
		c0.02-0.014,0.038-0.032,0.05-0.058c0.014-0.024,0.024-0.054,0.031-0.089c0.196-0.466,0.411-0.893,0.646-1.28
		c0.234-0.387,0.493-0.751,0.773-1.095c0.28-0.342,0.581-0.667,0.899-0.977c0.318-0.308,0.653-0.581,1.004-0.821
		c0.124-0.084,0.252-0.163,0.383-0.237c0.13-0.074,0.266-0.143,0.403-0.207c0.138-0.063,0.273-0.133,0.403-0.207
		c0.132-0.074,0.267-0.143,0.404-0.207c0.897-0.369,1.764-0.583,2.602-0.642c0.839-0.057,1.667,0.029,2.488,0.255
		c0.805,0.207,1.53,0.537,2.172,0.99c0.642,0.454,1.189,1.012,1.64,1.673l5.385,7.895c0.338,0.496,0.561,1.002,0.67,1.516
		c0.109,0.515,0.102,1.059-0.024,1.628c-0.106,0.555-0.306,1.048-0.603,1.477c-0.297,0.43-0.676,0.816-1.137,1.161
		c-0.495,0.339-0.994,0.571-1.495,0.702c-0.5,0.13-1.04,0.15-1.616,0.059c-0.569-0.125-1.08-0.329-1.529-0.613
		c-0.45-0.282-0.836-0.66-1.161-1.136l-4.414-6.471c-0.056-0.083-0.139-0.17-0.247-0.263s-0.219-0.176-0.33-0.252
		c-0.113-0.075-0.23-0.138-0.355-0.188c-0.125-0.05-0.258-0.089-0.396-0.115c-0.153-0.046-0.297-0.069-0.432-0.067
		c-0.135,0.001-0.269,0.017-0.4,0.045c-0.132,0.029-0.261,0.073-0.389,0.129c-0.127,0.057-0.243,0.121-0.346,0.191
		c-0.104,0.07-0.205,0.154-0.304,0.252c-0.1,0.1-0.187,0.203-0.262,0.314c-0.075,0.113-0.138,0.231-0.189,0.356
		c-0.05,0.124-0.089,0.258-0.115,0.396c-0.026,0.139-0.04,0.285-0.042,0.438s0.012,0.294,0.041,0.426
		c0.029,0.132,0.072,0.261,0.129,0.389s0.121,0.242,0.191,0.346l4.351,6.378c0.169,0.248,0.306,0.495,0.413,0.739
		c0.106,0.245,0.185,0.517,0.237,0.814c0.058,0.262,0.088,0.529,0.092,0.799c0.002,0.27-0.022,0.545-0.075,0.822
		s-0.129,0.542-0.23,0.792c-0.102,0.251-0.245,0.484-0.43,0.701c-0.164,0.203-0.341,0.398-0.529,0.588
		c-0.189,0.188-0.396,0.361-0.624,0.516c-0.206,0.142-0.433,0.265-0.677,0.372c-0.246,0.105-0.492,0.199-0.741,0.277
		c-0.249,0.079-0.513,0.124-0.793,0.133c-0.281,0.011-0.561-0.011-0.838-0.063l-0.021-0.031
		C82.428,317.558,82.181,317.484,81.931,317.383z"/>
	<path fill="none" stroke="#000000" stroke-miterlimit="10" d="M102.147,280.842c0.414-0.146,0.854-0.211,1.318-0.195
		c0.45-0.005,0.873,0.062,1.27,0.2c0.396,0.137,0.759,0.336,1.087,0.596l5.534,4.256l-1.994-6.715
		c-0.108-0.38-0.15-0.774-0.127-1.184c0.023-0.408,0.119-0.823,0.288-1.241c0.134-0.424,0.337-0.803,0.607-1.139
		c0.27-0.335,0.601-0.637,0.993-0.904l0.031-0.021l0.031-0.021c0.489-0.304,0.996-0.514,1.522-0.63
		c0.525-0.116,1.073-0.111,1.643,0.014c0.555,0.105,1.05,0.298,1.482,0.577c0.433,0.279,0.811,0.656,1.134,1.131
		c0.015,0.021,0.025,0.036,0.032,0.047s0.018,0.025,0.032,0.047c0.014,0.02,0.027,0.041,0.041,0.061
		c-0.006,0.036,0.004,0.073,0.033,0.114c0.014,0.021,0.025,0.037,0.032,0.047c0.007,0.011,0.018,0.026,0.032,0.047
		c0.063,0.138,0.124,0.271,0.181,0.398c0.057,0.128,0.1,0.257,0.129,0.389c0.05,0.116,0.083,0.245,0.103,0.384
		c0.019,0.139,0.042,0.272,0.071,0.403l1.696,12.862c0.089,0.575,0.125,1.094,0.11,1.559c-0.016,0.465-0.095,0.881-0.236,1.25
		c-0.127,0.389-0.313,0.727-0.556,1.014s-0.529,0.543-0.859,0.769c-0.042,0.028-0.088,0.06-0.139,0.095
		c-0.052,0.035-0.105,0.057-0.161,0.064c-0.062,0.042-0.123,0.076-0.181,0.1c-0.059,0.025-0.108,0.052-0.15,0.08
		c-0.097,0.036-0.206,0.087-0.325,0.154c-0.122,0.066-0.24,0.125-0.357,0.175c-0.193,0.072-0.391,0.115-0.591,0.132
		c-0.201,0.017-0.392,0.024-0.571,0.026c-0.194-0.019-0.396-0.048-0.604-0.087c-0.209-0.039-0.438-0.11-0.688-0.211
		c-0.104-0.021-0.208-0.048-0.308-0.086c-0.101-0.036-0.2-0.082-0.297-0.137c-0.098-0.054-0.205-0.11-0.319-0.169
		c-0.115-0.058-0.228-0.123-0.339-0.197l-11.398-6.336c-0.098-0.054-0.197-0.122-0.298-0.204c-0.102-0.082-0.198-0.168-0.289-0.257
		c-0.112-0.075-0.211-0.166-0.299-0.272c-0.087-0.106-0.185-0.215-0.289-0.324c-0.015-0.021-0.025-0.037-0.032-0.047
		c-0.007-0.01-0.018-0.025-0.032-0.047c-0.014-0.02-0.024-0.035-0.031-0.047c-0.007-0.01-0.028-0.018-0.063-0.025
		c-0.014-0.02-0.023-0.035-0.031-0.046c-0.007-0.01-0.018-0.025-0.031-0.047c-0.014-0.02-0.028-0.041-0.043-0.062
		c-0.014-0.021-0.027-0.041-0.042-0.062c-0.289-0.468-0.495-0.948-0.618-1.438c-0.124-0.491-0.133-1.014-0.027-1.569
		c0.084-0.542,0.272-1.031,0.562-1.472c0.29-0.439,0.665-0.832,1.125-1.176l-0.021-0.031
		C101.323,281.187,101.732,280.988,102.147,280.842z"/>
	<path fill="none" stroke="#000000" stroke-miterlimit="10" d="M121.961,267.191c0.055-0.052,0.116-0.117,0.185-0.194
		c0.062-0.042,0.121-0.089,0.176-0.142c0.055-0.053,0.113-0.101,0.175-0.143c0.11-0.105,0.224-0.204,0.34-0.301
		c0.117-0.094,0.237-0.184,0.361-0.268c0.392-0.268,0.785-0.489,1.178-0.668c0.393-0.178,0.797-0.317,1.212-0.418
		c0.415-0.102,0.825-0.155,1.23-0.159c0.406-0.004,0.81,0.023,1.212,0.081l0.042,0.062l1.814-3.459
		c0.041-0.028,0.074-0.058,0.098-0.09s0.039-0.064,0.046-0.099c0.027-0.05,0.058-0.093,0.092-0.132
		c0.034-0.038,0.071-0.071,0.113-0.1c0.02-0.014,0.041-0.028,0.062-0.042c0.021-0.015,0.034-0.039,0.041-0.073
		c0.042-0.028,0.072-0.05,0.093-0.063c0.02-0.015,0.041-0.028,0.062-0.043c0.021-0.014,0.035-0.037,0.041-0.072
		c0.041-0.028,0.072-0.049,0.093-0.063c0.103-0.07,0.222-0.129,0.357-0.176c0.134-0.046,0.267-0.084,0.399-0.113
		c0.131-0.029,0.269-0.048,0.415-0.056c0.146-0.009,0.287,0,0.426,0.025c0.347,0.066,0.68,0.166,0.996,0.298
		c0.316,0.131,0.618,0.297,0.904,0.494c0.287,0.197,0.556,0.414,0.807,0.65c0.252,0.236,0.477,0.5,0.674,0.789l7.075,10.372
		c0.366,0.538,0.612,1.064,0.739,1.583c0.127,0.519,0.141,1.038,0.042,1.559c-0.084,0.542-0.257,1.008-0.521,1.398
		c-0.263,0.391-0.601,0.728-1.013,1.009c-0.021,0.015-0.042,0.028-0.062,0.042c-0.021,0.015-0.036,0.025-0.046,0.032
		c-0.011,0.007-0.026,0.018-0.047,0.031c-0.035-0.007-0.062-0.003-0.082,0.011c-0.021,0.015-0.037,0.025-0.046,0.032
		c-0.011,0.007-0.026,0.018-0.047,0.031l-3.895,0.343l0.105,0.154c-0.059,0.403-0.163,0.793-0.315,1.168
		c-0.152,0.376-0.341,0.731-0.565,1.066c-0.253,0.294-0.542,0.604-0.864,0.93c-0.322,0.326-0.69,0.63-1.103,0.911
		c-0.145,0.099-0.287,0.188-0.428,0.27c-0.142,0.081-0.292,0.16-0.45,0.238c-0.083,0.056-0.164,0.104-0.243,0.143
		c-0.079,0.04-0.157,0.069-0.232,0.091c-0.083,0.057-0.164,0.104-0.243,0.144c-0.08,0.038-0.168,0.075-0.264,0.112
		c-0.518,0.262-1.071,0.457-1.662,0.589c-0.591,0.131-1.209,0.189-1.854,0.175c-0.645-0.014-1.292-0.086-1.941-0.218
		c-0.649-0.131-1.309-0.333-1.976-0.603c-0.446-0.211-0.88-0.436-1.301-0.678c-0.422-0.24-0.819-0.523-1.189-0.845
		c-0.405-0.329-0.775-0.682-1.108-1.06c-0.333-0.377-0.648-0.782-0.944-1.217c-0.014-0.021-0.027-0.04-0.042-0.062
		c-0.014-0.02-0.028-0.041-0.042-0.062c-0.028-0.041-0.049-0.072-0.063-0.093c-0.028-0.041-0.056-0.083-0.085-0.124
		c-0.028-0.042-0.056-0.083-0.084-0.124c-0.677-1.081-1.154-2.192-1.434-3.332c-0.279-1.141-0.359-2.312-0.24-3.511
		c0.119-1.2,0.397-2.29,0.834-3.268c0.436-0.979,1.042-1.854,1.817-2.625l-0.021-0.029
		C121.841,267.281,121.906,267.244,121.961,267.191z M128.337,276.34c0.133,0.152,0.28,0.278,0.44,0.379
		c0.14,0.118,0.301,0.22,0.482,0.309c0.181,0.088,0.365,0.158,0.553,0.211c0.202,0.075,0.405,0.117,0.609,0.129
		c0.205,0.013,0.4-0.001,0.587-0.037c0.222-0.029,0.421-0.082,0.596-0.157c0.176-0.075,0.336-0.16,0.481-0.259
		c0.021-0.015,0.041-0.028,0.062-0.043c0.021-0.014,0.042-0.027,0.063-0.042c0.02-0.014,0.041-0.028,0.062-0.042
		c0.151-0.134,0.293-0.291,0.427-0.473c0.133-0.182,0.247-0.38,0.342-0.597c0.094-0.216,0.16-0.44,0.195-0.677
		c0.036-0.236,0.034-0.493-0.003-0.771c-0.001-0.09-0.01-0.181-0.028-0.274c-0.019-0.094-0.046-0.188-0.082-0.285
		c-0.001-0.091-0.024-0.179-0.07-0.27c-0.046-0.09-0.087-0.183-0.123-0.279c-0.014-0.021-0.028-0.041-0.042-0.063
		c-0.014-0.02-0.025-0.058-0.032-0.114c-0.014-0.02-0.028-0.041-0.042-0.061c-0.014-0.021-0.028-0.042-0.042-0.063
		c-0.014-0.021-0.028-0.041-0.042-0.063c-0.014-0.02-0.025-0.058-0.032-0.114c-0.014-0.02-0.028-0.041-0.043-0.062
		c-0.014-0.021-0.027-0.041-0.042-0.063c-0.014-0.021-0.024-0.035-0.031-0.046s-0.018-0.025-0.032-0.047
		c-0.014-0.021-0.024-0.035-0.031-0.046s-0.018-0.025-0.032-0.047c-0.034-0.006-0.055-0.014-0.062-0.024s-0.018-0.025-0.032-0.047
		c-0.014-0.021-0.024-0.035-0.032-0.047c-0.006-0.01-0.017-0.024-0.031-0.046c-0.224-0.239-0.452-0.44-0.682-0.601
		c-0.231-0.16-0.471-0.291-0.722-0.393c-0.236-0.08-0.478-0.135-0.724-0.164c-0.247-0.028-0.49-0.021-0.733,0.023
		c-0.056,0.008-0.107,0.021-0.155,0.038c-0.049,0.018-0.101,0.03-0.156,0.038c-0.042,0.028-0.081,0.048-0.119,0.058
		c-0.038,0.011-0.085,0.021-0.141,0.027c-0.021,0.015-0.042,0.028-0.062,0.043c-0.021,0.014-0.048,0.018-0.083,0.012
		c-0.021,0.014-0.042,0.028-0.063,0.042c-0.021,0.015-0.041,0.028-0.062,0.042c-0.021,0.015-0.042,0.028-0.062,0.043
		c-0.021,0.014-0.048,0.018-0.083,0.011c-0.021,0.014-0.042,0.028-0.062,0.042s-0.042,0.028-0.062,0.042
		c-0.254,0.204-0.465,0.438-0.632,0.704c-0.167,0.265-0.291,0.561-0.37,0.887c-0.08,0.326-0.099,0.665-0.057,1.015
		s0.152,0.721,0.329,1.113c0.015,0.021,0.029,0.042,0.042,0.063c-0.006,0.035-0.006,0.058,0.001,0.067
		c0.007,0.011,0.018,0.026,0.031,0.047s0.028,0.041,0.042,0.062c0.015,0.021,0.028,0.042,0.042,0.063
		c0.015,0.02,0.028,0.041,0.042,0.062c-0.006,0.034-0.006,0.057,0.001,0.066c0.007,0.012,0.018,0.027,0.032,0.047
		c0.014,0.021,0.028,0.041,0.042,0.063c0.015,0.021,0.029,0.041,0.042,0.063l-0.021-0.031
		C128.067,276.011,128.204,276.188,128.337,276.34z"/>
	<path fill="none" stroke="#000000" stroke-miterlimit="10" d="M144.712,270.318c-0.365-0.158-0.715-0.351-1.05-0.575
		c-0.341-0.19-0.664-0.408-0.968-0.654c-0.305-0.248-0.593-0.504-0.866-0.771c-0.063-0.048-0.121-0.1-0.173-0.154
		s-0.1-0.113-0.142-0.175c-0.048-0.026-0.094-0.071-0.136-0.134c-0.042-0.062-0.085-0.124-0.126-0.186
		c-0.092-0.09-0.176-0.19-0.253-0.305c-0.077-0.113-0.158-0.232-0.243-0.356c-0.014-0.021-0.028-0.041-0.042-0.062l-0.021-0.031
		l-0.021-0.03c-0.043-0.063-0.088-0.129-0.138-0.202c-0.049-0.071-0.102-0.149-0.158-0.231c-0.042-0.063-0.083-0.132-0.122-0.212
		c-0.039-0.078-0.076-0.166-0.112-0.264c-0.226-0.42-0.413-0.86-0.56-1.319s-0.261-0.948-0.343-1.468
		c-0.103-0.504-0.159-1.018-0.167-1.541s0.008-1.042,0.051-1.556c0.033-0.173,0.063-0.352,0.088-0.536
		c0.026-0.183,0.056-0.361,0.088-0.537c0.034-0.083,0.06-0.168,0.076-0.255c0.016-0.086,0.034-0.182,0.054-0.286
		c0.034-0.083,0.064-0.172,0.091-0.266c0.026-0.094,0.057-0.183,0.09-0.267c0.195-0.557,0.429-1.101,0.701-1.634
		c0.271-0.533,0.606-1.041,1.002-1.522c0.362-0.49,0.795-0.952,1.3-1.388c0.504-0.434,1.057-0.855,1.656-1.265
		c0.103-0.07,0.211-0.144,0.325-0.222c0.113-0.077,0.232-0.158,0.356-0.243c0.124-0.084,0.251-0.163,0.382-0.237
		c0.132-0.074,0.266-0.143,0.403-0.207c0.965-0.536,1.846-0.918,2.645-1.145c0.798-0.229,1.533-0.313,2.206-0.259
		c0.638,0.05,1.197,0.204,1.679,0.466c0.48,0.263,0.877,0.62,1.186,1.074c0.015,0.021,0.029,0.042,0.043,0.062
		c0.014,0.021,0.027,0.041,0.042,0.063c0.014,0.021,0.028,0.041,0.042,0.062c0.015,0.021,0.028,0.042,0.042,0.062
		c0.015,0.021,0.025,0.037,0.032,0.047c0.007,0.011,0.018,0.026,0.031,0.046c-0.006,0.036-0.002,0.063,0.011,0.084
		c0.015,0.021,0.029,0.042,0.042,0.063c0.015,0.021,0.028,0.041,0.042,0.062c0.206,0.435,0.324,0.853,0.356,1.254
		c0.032,0.402-0.009,0.808-0.123,1.217c-0.127,0.391-0.312,0.751-0.555,1.082c-0.243,0.332-0.561,0.632-0.952,0.898l-0.031,0.021
		l-0.031,0.021c-0.021,0.014-0.042,0.028-0.062,0.042c-0.042,0.028-0.088,0.06-0.139,0.095c-0.052,0.035-0.098,0.067-0.139,0.095
		c-0.042,0.029-0.086,0.052-0.135,0.069c-0.048,0.02-0.1,0.031-0.155,0.038l-0.198,0.045l-0.931,0.363l-0.467,0.181l-0.734,0.32
		c-0.083,0.057-0.163,0.104-0.242,0.143c-0.08,0.039-0.15,0.08-0.212,0.122c-0.042,0.028-0.083,0.057-0.124,0.084
		c-0.042,0.028-0.079,0.039-0.114,0.032c-0.042,0.028-0.077,0.053-0.108,0.074c-0.031,0.021-0.067,0.046-0.108,0.074
		c-0.398,0.302-0.728,0.618-0.988,0.945c-0.259,0.33-0.425,0.685-0.497,1.066c-0.087,0.361-0.092,0.72-0.015,1.075
		c0.077,0.356,0.228,0.7,0.453,1.03c0.014,0.021,0.024,0.037,0.031,0.046c0.007,0.011,0.018,0.027,0.032,0.047
		c0.015,0.021,0.025,0.037,0.032,0.046c0.007,0.011,0.018,0.027,0.032,0.047c0.161,0.193,0.336,0.36,0.525,0.504
		c0.188,0.144,0.38,0.271,0.575,0.378c0.202,0.075,0.419,0.139,0.652,0.191c0.232,0.054,0.487,0.062,0.764,0.022
		c0.146-0.009,0.28-0.032,0.405-0.071c0.124-0.04,0.251-0.074,0.383-0.104c0.117-0.049,0.246-0.105,0.383-0.17
		c0.138-0.064,0.279-0.146,0.423-0.244c0.083-0.057,0.16-0.109,0.232-0.158c0.072-0.05,0.143-0.112,0.211-0.189
		c0.083-0.056,0.167-0.121,0.252-0.194c0.086-0.073,0.163-0.148,0.231-0.227l0.072-0.094l0.915-0.987
		c0.055-0.007,0.105-0.033,0.15-0.079c0.044-0.045,0.08-0.093,0.107-0.142c0.02-0.014,0.041-0.027,0.062-0.042
		c0.021-0.014,0.045-0.046,0.072-0.095c0.02-0.014,0.046-0.031,0.077-0.053c0.031-0.021,0.057-0.038,0.078-0.053
		c0.02-0.014,0.041-0.027,0.062-0.042c0.02-0.014,0.045-0.045,0.072-0.095c0.02-0.014,0.041-0.028,0.062-0.042
		c0.02-0.014,0.041-0.028,0.062-0.042c0.021-0.015,0.042-0.028,0.062-0.043c0.021-0.014,0.044-0.044,0.072-0.095
		c0.021-0.014,0.046-0.031,0.077-0.053c0.031-0.021,0.057-0.038,0.077-0.053c0.021-0.014,0.042-0.027,0.062-0.042
		c0.021-0.014,0.042-0.028,0.062-0.042s0.036-0.024,0.047-0.032c0.01-0.007,0.025-0.018,0.046-0.031s0.042-0.028,0.062-0.042
		c0.413-0.282,0.849-0.474,1.309-0.575c0.459-0.102,0.933-0.106,1.419-0.015c0.472,0.071,0.9,0.233,1.283,0.485
		c0.385,0.253,0.717,0.585,0.998,0.997c0.015,0.021,0.036,0.053,0.064,0.094c0.014,0.021,0.028,0.041,0.042,0.062
		c0.014,0.021,0.028,0.042,0.042,0.062c0.014,0.021,0.035,0.052,0.063,0.093c-0.006,0.035-0.002,0.063,0.012,0.084
		c0.014,0.021,0.028,0.041,0.042,0.063c0.241,0.531,0.351,1.091,0.329,1.68c-0.021,0.59-0.174,1.208-0.459,1.855
		c-0.305,0.661-0.817,1.328-1.538,2.002c-0.72,0.673-1.627,1.382-2.721,2.128c-0.882,0.571-1.739,1.043-2.574,1.415
		c-0.834,0.373-1.678,0.622-2.528,0.75c-0.837,0.147-1.672,0.188-2.504,0.119c-0.833-0.066-1.652-0.249-2.459-0.546l-0.021-0.03
		C145.456,270.622,145.078,270.479,144.712,270.318z"/>
	<path fill="none" stroke="#000000" stroke-miterlimit="10" d="M158.682,242.146c0.055-0.053,0.116-0.117,0.185-0.194
		c0.062-0.042,0.12-0.089,0.176-0.142c0.055-0.053,0.113-0.101,0.175-0.143c0.11-0.105,0.224-0.204,0.34-0.301
		c0.117-0.094,0.237-0.184,0.361-0.268c0.392-0.268,0.785-0.49,1.178-0.668c0.393-0.177,0.797-0.317,1.212-0.418
		c0.415-0.101,0.825-0.154,1.23-0.159c0.406-0.003,0.81,0.024,1.212,0.082l0.042,0.062l1.814-3.459
		c0.041-0.028,0.074-0.058,0.098-0.089s0.039-0.065,0.046-0.099c0.027-0.05,0.058-0.092,0.092-0.131
		c0.034-0.039,0.071-0.072,0.113-0.1c0.02-0.014,0.041-0.028,0.062-0.042c0.021-0.014,0.034-0.039,0.041-0.074
		c0.042-0.028,0.072-0.049,0.093-0.063c0.02-0.014,0.041-0.028,0.062-0.042c0.021-0.014,0.035-0.038,0.041-0.072
		c0.041-0.028,0.072-0.049,0.093-0.063c0.103-0.07,0.222-0.129,0.357-0.176c0.134-0.046,0.267-0.083,0.399-0.113
		c0.131-0.029,0.269-0.048,0.415-0.056c0.146-0.009,0.287,0,0.426,0.025c0.347,0.066,0.68,0.166,0.996,0.298
		c0.316,0.13,0.618,0.297,0.904,0.494c0.287,0.198,0.556,0.415,0.807,0.651c0.252,0.236,0.477,0.499,0.674,0.788l7.075,10.373
		c0.366,0.537,0.612,1.064,0.739,1.583c0.127,0.519,0.141,1.038,0.042,1.559c-0.084,0.542-0.257,1.008-0.521,1.398
		c-0.263,0.391-0.601,0.728-1.013,1.009c-0.021,0.015-0.042,0.028-0.062,0.042c-0.021,0.015-0.036,0.025-0.046,0.032
		c-0.011,0.007-0.026,0.018-0.047,0.031c-0.035-0.007-0.062-0.003-0.082,0.011c-0.021,0.015-0.037,0.025-0.046,0.032
		c-0.011,0.007-0.026,0.018-0.047,0.031l-3.895,0.343l0.105,0.154c-0.059,0.403-0.163,0.792-0.315,1.168
		c-0.152,0.376-0.341,0.731-0.565,1.066c-0.253,0.294-0.542,0.604-0.864,0.93s-0.69,0.63-1.103,0.911
		c-0.145,0.099-0.287,0.188-0.428,0.27c-0.142,0.081-0.292,0.16-0.45,0.238c-0.083,0.056-0.164,0.104-0.243,0.143
		c-0.079,0.039-0.157,0.069-0.232,0.091c-0.083,0.057-0.164,0.104-0.244,0.144c-0.079,0.038-0.167,0.075-0.263,0.112
		c-0.518,0.261-1.071,0.457-1.662,0.589c-0.591,0.131-1.209,0.189-1.854,0.176c-0.645-0.015-1.292-0.087-1.941-0.219
		c-0.649-0.131-1.309-0.333-1.976-0.603c-0.446-0.211-0.88-0.437-1.301-0.678c-0.422-0.241-0.819-0.523-1.189-0.845
		c-0.405-0.329-0.775-0.682-1.108-1.061c-0.334-0.376-0.648-0.781-0.944-1.216c-0.014-0.021-0.027-0.04-0.042-0.062
		c-0.014-0.02-0.028-0.041-0.042-0.062c-0.028-0.041-0.049-0.072-0.063-0.093c-0.028-0.041-0.056-0.083-0.085-0.124
		c-0.028-0.042-0.056-0.083-0.084-0.124c-0.677-1.081-1.154-2.192-1.434-3.332c-0.279-1.141-0.359-2.312-0.24-3.512
		c0.119-1.199,0.397-2.289,0.834-3.267c0.436-0.979,1.042-1.854,1.817-2.625l-0.021-0.03
		C158.562,242.235,158.627,242.198,158.682,242.146z M165.058,251.294c0.133,0.152,0.28,0.278,0.44,0.379
		c0.14,0.118,0.301,0.22,0.482,0.309c0.181,0.088,0.365,0.158,0.553,0.211c0.202,0.075,0.405,0.117,0.609,0.129
		c0.205,0.013,0.4-0.001,0.587-0.037c0.222-0.029,0.421-0.082,0.596-0.157c0.176-0.075,0.336-0.161,0.481-0.259
		c0.021-0.015,0.041-0.028,0.062-0.043c0.021-0.014,0.042-0.027,0.063-0.042c0.02-0.014,0.041-0.028,0.062-0.042
		c0.151-0.134,0.293-0.291,0.427-0.473c0.133-0.182,0.247-0.38,0.342-0.597c0.094-0.216,0.16-0.44,0.195-0.677
		c0.036-0.236,0.034-0.493-0.003-0.771c-0.001-0.09-0.01-0.181-0.028-0.274c-0.019-0.094-0.046-0.188-0.082-0.285
		c-0.001-0.091-0.024-0.18-0.07-0.27c-0.046-0.09-0.087-0.183-0.123-0.279c-0.014-0.021-0.028-0.041-0.042-0.063
		c-0.014-0.02-0.025-0.059-0.032-0.114c-0.014-0.02-0.028-0.041-0.042-0.061c-0.014-0.021-0.028-0.042-0.042-0.063
		c-0.014-0.021-0.028-0.041-0.042-0.063c-0.014-0.02-0.025-0.058-0.032-0.114c-0.014-0.02-0.028-0.041-0.042-0.062
		c-0.014-0.021-0.028-0.041-0.042-0.063c-0.014-0.021-0.024-0.035-0.031-0.046c-0.007-0.011-0.018-0.025-0.032-0.047
		c-0.014-0.021-0.024-0.035-0.031-0.046c-0.007-0.011-0.018-0.025-0.032-0.047c-0.035-0.006-0.055-0.014-0.063-0.024
		s-0.018-0.025-0.032-0.047c-0.014-0.021-0.024-0.035-0.032-0.047c-0.006-0.01-0.017-0.024-0.031-0.046
		c-0.224-0.239-0.452-0.44-0.682-0.601c-0.231-0.16-0.471-0.291-0.722-0.393c-0.236-0.08-0.478-0.135-0.724-0.164
		c-0.247-0.028-0.49-0.021-0.733,0.023c-0.056,0.008-0.107,0.021-0.155,0.038c-0.049,0.018-0.101,0.03-0.156,0.038
		c-0.042,0.028-0.081,0.048-0.119,0.059c-0.038,0.01-0.085,0.02-0.141,0.026c-0.021,0.015-0.042,0.028-0.062,0.042
		c-0.021,0.015-0.048,0.019-0.083,0.013c-0.021,0.014-0.042,0.028-0.062,0.042c-0.021,0.014-0.042,0.028-0.062,0.042
		c-0.021,0.015-0.042,0.028-0.062,0.042c-0.021,0.015-0.048,0.018-0.083,0.012c-0.021,0.014-0.042,0.028-0.062,0.042
		s-0.042,0.028-0.062,0.042c-0.254,0.204-0.465,0.438-0.632,0.704c-0.167,0.265-0.291,0.561-0.37,0.887
		c-0.08,0.326-0.099,0.665-0.057,1.015s0.152,0.721,0.329,1.113c0.015,0.021,0.029,0.042,0.042,0.063
		c-0.006,0.035-0.006,0.058,0.001,0.067c0.007,0.011,0.018,0.026,0.031,0.047c0.014,0.021,0.028,0.041,0.042,0.062
		c0.014,0.021,0.028,0.042,0.042,0.063c0.014,0.02,0.028,0.041,0.042,0.062c-0.006,0.034-0.006,0.057,0.001,0.066
		c0.007,0.011,0.018,0.026,0.032,0.047c0.014,0.021,0.028,0.041,0.042,0.062c0.015,0.021,0.029,0.042,0.042,0.063l-0.021-0.031
		C164.788,250.964,164.924,251.143,165.058,251.294z"/>
	<path fill="none" stroke="#000000" stroke-miterlimit="10" d="M171.989,233.953c0.085-0.208,0.198-0.407,0.342-0.595
		c0.144-0.188,0.294-0.367,0.452-0.536c0.158-0.168,0.339-0.322,0.546-0.463l0.289-0.242l-0.992-1.454
		c-0.141-0.207-0.269-0.438-0.382-0.693c-0.114-0.255-0.2-0.515-0.258-0.777c-0.052-0.298-0.079-0.583-0.083-0.853
		c-0.002-0.27,0.022-0.543,0.075-0.821c0.052-0.278,0.134-0.545,0.246-0.804c0.112-0.257,0.243-0.498,0.394-0.721
		c0.149-0.223,0.319-0.43,0.507-0.619c0.189-0.189,0.397-0.361,0.624-0.516c0.021-0.014,0.042-0.028,0.062-0.042
		c0.021-0.014,0.042-0.028,0.062-0.042s0.036-0.025,0.046-0.032s0.026-0.018,0.046-0.032c0.021-0.014,0.042-0.028,0.063-0.042
		c0.116-0.05,0.229-0.096,0.335-0.139c0.107-0.042,0.219-0.088,0.336-0.139c0.097-0.035,0.208-0.072,0.332-0.112
		s0.242-0.066,0.352-0.082c0.243-0.044,0.485-0.064,0.728-0.065c0.243,0.001,0.493,0.036,0.75,0.101
		c0.277,0.054,0.542,0.13,0.792,0.231c0.251,0.102,0.495,0.238,0.733,0.408c0.243,0.137,0.467,0.31,0.67,0.519
		c0.204,0.21,0.382,0.427,0.537,0.655l0.929,1.361l0.403-0.275c0.2-0.105,0.407-0.201,0.62-0.287
		c0.214-0.085,0.436-0.16,0.663-0.225c0.222-0.03,0.445-0.046,0.67-0.048c0.226-0.003,0.452,0.008,0.682,0.034
		c0.243,0.046,0.468,0.111,0.678,0.196c0.208,0.084,0.417,0.191,0.627,0.321c0.097,0.055,0.188,0.122,0.272,0.2
		c0.084,0.079,0.165,0.152,0.242,0.221c0.09,0.089,0.17,0.173,0.236,0.247c0.066,0.076,0.135,0.165,0.206,0.269
		c0.126,0.186,0.226,0.375,0.296,0.568c0.071,0.194,0.133,0.394,0.183,0.602c0.051,0.207,0.077,0.424,0.08,0.648
		c0.002,0.226-0.009,0.453-0.034,0.682c-0.047,0.243-0.111,0.47-0.196,0.677c-0.084,0.21-0.191,0.419-0.32,0.627
		c-0.13,0.21-0.269,0.404-0.42,0.582c-0.151,0.178-0.33,0.337-0.536,0.478l-0.455,0.266l5.301,7.771
		c0.169,0.248,0.306,0.494,0.413,0.738c0.107,0.245,0.186,0.517,0.237,0.814c0.059,0.262,0.093,0.534,0.103,0.814
		c0.01,0.28-0.012,0.56-0.064,0.838c-0.053,0.277-0.129,0.542-0.23,0.792c-0.102,0.251-0.245,0.484-0.43,0.701
		c-0.15,0.223-0.319,0.43-0.508,0.618c-0.189,0.189-0.396,0.362-0.624,0.517c-0.021,0.015-0.042,0.028-0.062,0.042
		c-0.021,0.015-0.036,0.025-0.046,0.032c-0.011,0.007-0.026,0.018-0.046,0.031c-0.021,0.015-0.042,0.028-0.062,0.042
		c-0.021,0.015-0.042,0.029-0.062,0.043c-0.221,0.119-0.441,0.217-0.662,0.293c-0.221,0.074-0.438,0.154-0.652,0.24
		c-0.242,0.045-0.488,0.061-0.737,0.049c-0.25-0.011-0.496-0.039-0.739-0.085c-0.278-0.053-0.545-0.135-0.803-0.246
		s-0.509-0.235-0.753-0.372c-0.237-0.171-0.45-0.35-0.64-0.539c-0.189-0.188-0.368-0.406-0.537-0.654l-5.343-7.833l-0.248,0.169
		c-0.192,0.163-0.406,0.292-0.64,0.392s-0.473,0.171-0.715,0.215c-0.263,0.059-0.515,0.088-0.757,0.086
		c-0.243,0-0.486-0.023-0.729-0.07c-0.188-0.054-0.381-0.126-0.579-0.217c-0.199-0.092-0.385-0.198-0.56-0.322
		c-0.175-0.123-0.342-0.258-0.503-0.405c-0.16-0.146-0.305-0.314-0.432-0.5c-0.07-0.104-0.128-0.2-0.174-0.289
		c-0.045-0.089-0.093-0.193-0.144-0.312c-0.035-0.096-0.07-0.201-0.102-0.315c-0.033-0.114-0.057-0.227-0.071-0.336
		c-0.03-0.222-0.046-0.445-0.049-0.67c-0.002-0.225-0.001-0.444,0.004-0.66l-0.021-0.031
		C171.825,234.368,171.905,234.163,171.989,233.953z"/>
	<path fill="none" stroke="#000000" stroke-miterlimit="10" d="M182.724,222.321c-0.265-0.12-0.526-0.261-0.785-0.418
		c-0.237-0.17-0.459-0.351-0.666-0.543c-0.207-0.191-0.395-0.412-0.563-0.659c-0.169-0.248-0.309-0.508-0.418-0.78
		c-0.111-0.272-0.202-0.55-0.274-0.834c-0.052-0.298-0.077-0.589-0.077-0.878c0-0.287,0.027-0.569,0.08-0.847
		c0.066-0.257,0.143-0.499,0.231-0.725c0.088-0.226,0.197-0.444,0.326-0.654c0.115-0.229,0.253-0.437,0.414-0.623
		c0.161-0.185,0.338-0.358,0.53-0.521c0.021-0.014,0.036-0.024,0.046-0.032c0.01-0.007,0.019-0.027,0.025-0.062
		c0.02-0.014,0.041-0.028,0.062-0.042c0.041-0.028,0.077-0.053,0.108-0.074c0.031-0.021,0.057-0.039,0.077-0.053
		c0.242-0.135,0.494-0.262,0.76-0.383c0.265-0.121,0.537-0.2,0.813-0.237c0.283-0.072,0.568-0.108,0.856-0.107
		c0.288,0,0.587,0.03,0.9,0.089c0.292,0.074,0.572,0.163,0.84,0.266c0.268,0.106,0.521,0.243,0.758,0.414
		c0.258,0.157,0.488,0.341,0.691,0.549c0.204,0.209,0.382,0.427,0.538,0.654c0.014,0.021,0.031,0.047,0.053,0.078
		s0.046,0.066,0.073,0.107c0.015,0.021,0.029,0.042,0.043,0.063c-0.007,0.035-0.006,0.057,0,0.068
		c0.007,0.011,0.018,0.025,0.031,0.046c0.121,0.22,0.222,0.447,0.304,0.679c0.082,0.23,0.134,0.474,0.159,0.73
		c0.044,0.242,0.065,0.485,0.064,0.727c-0.001,0.243-0.017,0.497-0.049,0.759c-0.059,0.312-0.144,0.598-0.256,0.855
		c-0.112,0.257-0.246,0.516-0.402,0.773c-0.17,0.238-0.357,0.463-0.559,0.677s-0.424,0.388-0.665,0.521
		c-0.021,0.014-0.046,0.032-0.078,0.053c-0.031,0.021-0.067,0.046-0.108,0.074c-0.021,0.014-0.042,0.028-0.063,0.042
		c-0.021,0.015-0.04,0.02-0.057,0.018c-0.018-0.004-0.037,0.002-0.057,0.016c-0.207,0.141-0.425,0.252-0.656,0.335
		c-0.232,0.082-0.468,0.145-0.71,0.188c-0.256,0.024-0.509,0.031-0.758,0.018c-0.25-0.01-0.506-0.031-0.771-0.064l-0.021-0.03
		C183.252,222.521,182.988,222.444,182.724,222.321z M197.515,240.384c-0.508,0.119-1.05,0.134-1.626,0.043
		c-0.556-0.104-1.053-0.302-1.493-0.593c-0.44-0.289-0.821-0.671-1.146-1.146l-7.074-10.373c-0.31-0.453-0.518-0.946-0.624-1.479
		c-0.105-0.532-0.106-1.077-0.001-1.632c0.111-0.591,0.315-1.101,0.613-1.531c0.296-0.429,0.682-0.805,1.157-1.129
		c0.488-0.303,0.991-0.51,1.506-0.619c0.516-0.108,1.058-0.101,1.627,0.024c0.576,0.091,1.084,0.281,1.524,0.572
		c0.439,0.29,0.821,0.672,1.145,1.146l6.99,10.248c0.338,0.496,0.562,1.002,0.671,1.516c0.109,0.515,0.108,1.069-0.003,1.659
		c-0.105,0.556-0.311,1.051-0.618,1.488c-0.308,0.436-0.698,0.816-1.173,1.141l0.021,0.03
		C198.522,240.052,198.023,240.263,197.515,240.384z"/>
	<path fill="none" stroke="#000000" stroke-miterlimit="10" d="M209.245,231.907c-1.365,0.327-2.763,0.372-4.193,0.138
		c-1.465-0.24-2.76-0.71-3.887-1.409c-1.126-0.698-2.098-1.646-2.915-2.844c-0.837-1.182-1.388-2.434-1.65-3.75
		c-0.264-1.317-0.248-2.712,0.049-4.185c0.275-1.458,0.813-2.776,1.611-3.958c0.798-1.179,1.858-2.219,3.179-3.12
		c0.599-0.408,1.208-0.757,1.83-1.044c0.62-0.288,1.252-0.514,1.895-0.681c0.663-0.18,1.322-0.289,1.977-0.327
		c0.655-0.039,1.307-0.023,1.96,0.047c0.757,0.089,1.482,0.244,2.178,0.465c0.695,0.221,1.35,0.516,1.964,0.884
		c0.614,0.368,1.177,0.784,1.692,1.25c0.514,0.466,0.972,0.971,1.372,1.514c0.014,0.021,0.029,0.042,0.042,0.063
		c0.014,0.021,0.025,0.036,0.032,0.046c0.007,0.011,0.018,0.026,0.031,0.047c0.015,0.021,0.029,0.041,0.042,0.062
		c0.015,0.021,0.025,0.036,0.032,0.047c0.007,0.011,0.018,0.025,0.031,0.046c0.507,0.743,0.901,1.533,1.185,2.368
		c0.282,0.836,0.47,1.721,0.563,2.655s0.044,1.86-0.147,2.776c-0.191,0.918-0.508,1.828-0.948,2.734
		c-0.189,0.432-0.42,0.847-0.694,1.244c-0.272,0.399-0.595,0.769-0.966,1.112c-0.321,0.371-0.671,0.723-1.049,1.056
		c-0.378,0.333-0.783,0.647-1.216,0.943l0.021,0.031C211.95,230.983,210.61,231.581,209.245,231.907z M205.936,224.228
		c0.363,0.267,0.76,0.45,1.191,0.549s0.827,0.116,1.19,0.05c0.363-0.066,0.71-0.212,1.041-0.438c0.02-0.014,0.041-0.028,0.062-0.042
		c0.021-0.014,0.041-0.028,0.062-0.042c0.042-0.028,0.072-0.049,0.093-0.063c0.041-0.028,0.079-0.061,0.113-0.099
		c0.035-0.039,0.065-0.083,0.092-0.131c0.24-0.225,0.43-0.468,0.569-0.728c0.14-0.262,0.218-0.535,0.236-0.819
		c0.039-0.298,0.024-0.606-0.042-0.925c-0.066-0.317-0.19-0.655-0.374-1.014c-0.014-0.021-0.028-0.041-0.042-0.062
		c-0.014-0.021-0.025-0.059-0.032-0.114c-0.015-0.021-0.032-0.047-0.053-0.078c-0.021-0.031-0.039-0.057-0.053-0.077
		c-0.028-0.041-0.049-0.072-0.063-0.093c-0.015-0.021-0.025-0.059-0.033-0.115c-0.014-0.021-0.031-0.046-0.053-0.076
		c-0.021-0.032-0.039-0.058-0.053-0.078c-0.099-0.145-0.204-0.276-0.316-0.397c-0.112-0.121-0.231-0.228-0.356-0.323
		c-0.105-0.11-0.226-0.209-0.362-0.298c-0.136-0.087-0.271-0.163-0.403-0.225c-0.264-0.121-0.527-0.207-0.788-0.257
		c-0.26-0.049-0.5-0.058-0.722-0.028c-0.236,0.01-0.464,0.052-0.686,0.127c-0.22,0.076-0.435,0.184-0.641,0.324
		c-0.207,0.141-0.39,0.304-0.551,0.489c-0.161,0.186-0.289,0.386-0.383,0.602c-0.108,0.196-0.183,0.419-0.222,0.672
		c-0.039,0.254-0.049,0.527-0.033,0.817c0.008,0.146,0.029,0.299,0.062,0.457c0.033,0.159,0.071,0.315,0.114,0.467
		c0.063,0.137,0.13,0.281,0.202,0.429c0.071,0.149,0.163,0.304,0.276,0.47l-0.021-0.031
		C205.247,223.595,205.573,223.963,205.936,224.228z"/>
	<path fill="none" stroke="#000000" stroke-miterlimit="10" d="M223.458,220.852c-0.251-0.101-0.498-0.22-0.742-0.356
		c-0.238-0.171-0.451-0.351-0.64-0.539c-0.19-0.188-0.361-0.396-0.517-0.624l-7.053-10.342c-0.323-0.474-0.546-0.966-0.666-1.474
		s-0.127-1.04-0.021-1.595c0.105-0.555,0.292-1.046,0.561-1.473c0.27-0.425,0.621-0.786,1.054-1.082l0.031-0.021
		c0.021-0.014,0.042-0.028,0.062-0.042c0.021-0.014,0.041-0.028,0.062-0.042l3.866-0.187l-0.085-0.124
		c0.021-0.014,0.032-0.029,0.036-0.047c0.003-0.017,0.008-0.043,0.015-0.078c0.021-0.014,0.033-0.029,0.036-0.047
		c0.003-0.017,0.008-0.043,0.015-0.079c0.006-0.033,0.017-0.064,0.03-0.088c0.013-0.023,0.023-0.055,0.03-0.089
		c0.021-0.014,0.038-0.032,0.051-0.058c0.014-0.023,0.024-0.054,0.031-0.088c0.196-0.465,0.412-0.893,0.646-1.28
		c0.235-0.387,0.493-0.751,0.773-1.094c0.281-0.343,0.581-0.668,0.899-0.977c0.318-0.308,0.653-0.582,1.005-0.822
		c0.124-0.084,0.251-0.163,0.382-0.238c0.13-0.074,0.266-0.143,0.403-0.207c0.138-0.064,0.272-0.133,0.403-0.208
		c0.131-0.074,0.266-0.143,0.403-0.207c0.897-0.37,1.765-0.583,2.602-0.641c0.839-0.057,1.668,0.028,2.488,0.255
		c0.806,0.206,1.53,0.536,2.173,0.989c0.642,0.455,1.188,1.012,1.64,1.673l5.385,7.895c0.338,0.496,0.562,1.001,0.671,1.516
		c0.109,0.515,0.102,1.058-0.024,1.627c-0.105,0.556-0.306,1.048-0.603,1.477c-0.297,0.43-0.677,0.816-1.137,1.162
		c-0.495,0.338-0.994,0.571-1.495,0.702c-0.5,0.13-1.039,0.15-1.615,0.059c-0.57-0.125-1.08-0.33-1.529-0.614
		c-0.45-0.283-0.837-0.66-1.161-1.136l-4.414-6.471c-0.056-0.083-0.138-0.17-0.247-0.263c-0.108-0.092-0.218-0.176-0.33-0.251
		c-0.112-0.075-0.23-0.138-0.355-0.188c-0.125-0.051-0.257-0.089-0.396-0.116c-0.152-0.046-0.297-0.069-0.432-0.067
		c-0.135,0.002-0.268,0.017-0.399,0.045c-0.132,0.029-0.261,0.073-0.389,0.128c-0.127,0.058-0.243,0.122-0.346,0.192
		c-0.104,0.071-0.205,0.154-0.304,0.252c-0.1,0.099-0.187,0.203-0.262,0.314c-0.075,0.113-0.138,0.231-0.188,0.356
		c-0.05,0.125-0.089,0.258-0.115,0.396s-0.04,0.285-0.042,0.437c-0.002,0.153,0.011,0.294,0.041,0.426
		c0.029,0.132,0.072,0.261,0.128,0.389c0.057,0.128,0.121,0.243,0.191,0.346l4.351,6.378c0.169,0.248,0.307,0.495,0.413,0.74
		c0.106,0.245,0.186,0.516,0.237,0.813c0.059,0.263,0.089,0.529,0.092,0.799s-0.022,0.544-0.075,0.822
		c-0.052,0.278-0.129,0.542-0.229,0.793c-0.102,0.25-0.245,0.484-0.43,0.7c-0.164,0.204-0.34,0.398-0.529,0.588
		c-0.188,0.189-0.396,0.361-0.623,0.516c-0.207,0.141-0.433,0.265-0.677,0.372c-0.246,0.105-0.492,0.199-0.741,0.277
		c-0.249,0.08-0.513,0.124-0.793,0.134c-0.281,0.01-0.561-0.012-0.838-0.064l-0.021-0.031
		C223.955,221.027,223.709,220.953,223.458,220.852z"/>
</g>
</svg>
