<?xml version="1.0" encoding="utf-8"?>
<!-- Generator: Adobe Illustrator 17.0.0, SVG Export Plug-In . SVG Version: 6.00 Build 0)  -->
<!DOCTYPE svg PUBLIC "-//W3C//DTD SVG 1.1 Tiny//EN" "http://www.w3.org/Graphics/SVG/1.1/DTD/svg11-tiny.dtd">
<svg version="1.1" baseProfile="tiny" id="Layer_1" xmlns="http://www.w3.org/2000/svg" xmlns:xlink="http://www.w3.org/1999/xlink"
	 x="0px" y="0px" width="480px" height="480px" viewBox="0 0 480 480" overflow="scroll" xml:space="preserve">
<rect fill="#FFB000" width="480" height="480"/>
<g>
	<g>
		<polygon fill="#FFB000" stroke="#000000" stroke-width="2" stroke-miterlimit="10" points="177.487,460.724 173.025,257.529 
			238.389,244.952 238.389,460.923 		"/>
		<polygon fill="#FFB000" stroke="#000000" stroke-width="2" stroke-miterlimit="10" points="302.735,461.594 306.975,258.399 
			241.389,245.822 241.389,461.793 		"/>
	</g>
	<polygon fill="#FFFFFF" points="173.025,376.006 175.627,421.506 238.389,421.506 233.889,372.506 	"/>
	<polygon fill="#FFFFFF" points="304.431,376.006 301.829,421.506 239.067,421.506 243.567,372.506 	"/>
	<polyline fill="none" stroke="#000000" stroke-width="2" stroke-miterlimit="10" points="175.627,376.006 175.627,421.506 
		238.389,421.506 238.389,376.006 	"/>
	<polyline fill="none" stroke="#000000" stroke-width="2" stroke-miterlimit="10" points="241.668,376.006 241.668,421.506 
		304.431,421.506 304.431,376.006 	"/>
</g>
<circle fill="none" stroke="#000000" stroke-width="2.3501" stroke-miterlimit="10" cx="240" cy="96.341" r="53.095"/>
<g>
	<polygon fill="none" stroke="#000000" stroke-width="2.3501" stroke-miterlimit="10" points="164.762,172.387 133.779,203.15 
		149.271,306.743 167.611,298.413 	"/>
	<polygon fill="none" stroke="#000000" stroke-width="2.3501" stroke-miterlimit="10" points="315.237,172.387 346.221,203.15 
		330.729,306.743 312.388,298.413 	"/>
</g>
<g>
	<g>
		<path fill="#FFFFFF" d="M104.501,82.283h275L291.68,64.47l3.585-31.963c0,0-59.656-49.955-111.71,2.523l0.943,29.441
			C184.499,64.47,122.501,72.061,104.501,82.283z"/>
		<path fill="none" stroke="#000000" stroke-width="2.3501" stroke-miterlimit="10" d="M111.31,82.283h257.382
			C368.692,82.283,230.069,42.202,111.31,82.283z"/>
		<polygon fill="#FFB000" stroke="#000000" stroke-width="2" stroke-miterlimit="10" points="183.555,43.246 295.265,43.246 
			292.476,57.379 183.555,57.379 		"/>
	</g>
	<path fill="none" stroke="#000000" stroke-width="2.3501" stroke-miterlimit="10" d="M183.556,65.955V35.029
		c0,0,7.359-19.298,56.749-22.267"/>
	<path fill="none" stroke="#000000" stroke-width="2.3501" stroke-miterlimit="10" d="M295.265,65.955V35.029
		c0,0-7.359-19.298-56.749-22.267"/>
</g>
<g>
	<polygon fill="#FFB000" stroke="#000000" stroke-width="2" stroke-miterlimit="10" points="169.287,376.006 164.691,172.553 
		229.923,159.847 239.167,202.224 249.926,159.75 315.309,172.569 310.865,376.006 	"/>
</g>
<g>
	<path stroke="#000000" stroke-width="2.3501" stroke-miterlimit="10" d="M186.507,96.341h48.011c0,0,11.211,27.896-43.894,20.53
		L186.507,96.341z"/>
	<path stroke="#000000" stroke-width="2.3501" stroke-miterlimit="10" d="M293.493,96.341h-48.011c0,0-11.211,27.896,43.894,20.53
		L293.493,96.341z"/>
</g>
<g>
	<g>
		<circle fill="none" stroke="#000000" stroke-width="0.4131" stroke-miterlimit="10" cx="196.743" cy="210.042" r="2.725"/>
		<ellipse fill="#FFFFFF" cx="196.743" cy="209.96" rx="2.725" ry="3.386"/>
		<path fill="none" stroke="#000000" stroke-width="0.4131" stroke-miterlimit="10" d="M196.743,207.317c0,0-0.351-9.72,2.725-8.44
			c0,0,14.978,2.995,0,11.164C199.468,210.042,200.281,207.628,196.743,207.317z"/>
		<path fill="none" stroke="#000000" stroke-width="0.4131" stroke-miterlimit="10" d="M197.08,213.011c0,0,0.351,9.72-2.725,8.44
			c0,0-14.978-2.995,0-11.164C194.355,210.286,193.542,212.699,197.08,213.011z"/>
		<path fill="none" stroke="#000000" stroke-width="0.4131" stroke-miterlimit="10" d="M196.743,213.011c0,0-0.351,9.72,2.725,8.44
			c0,0,14.978-2.995,0-11.164C199.468,210.286,200.281,212.699,196.743,213.011z"/>
		<path fill="none" stroke="#000000" stroke-width="0.4131" stroke-miterlimit="10" d="M197.08,207.317c0,0,0.351-9.72-2.725-8.44
			c0,0-14.978,2.995,0,11.164C194.355,210.042,193.542,207.628,197.08,207.317z"/>
	</g>
	<g>
		<circle fill="none" stroke="#000000" stroke-width="0.4131" stroke-miterlimit="10" cx="196.743" cy="277.721" r="2.725"/>
		<ellipse fill="#FFFFFF" cx="196.743" cy="277.639" rx="2.725" ry="3.386"/>
		<path fill="none" stroke="#000000" stroke-width="0.4131" stroke-miterlimit="10" d="M196.743,274.996c0,0-0.351-9.72,2.725-8.44
			c0,0,14.978,2.995,0,11.164C199.468,277.721,200.281,275.308,196.743,274.996z"/>
		<path fill="none" stroke="#000000" stroke-width="0.4131" stroke-miterlimit="10" d="M197.08,280.69c0,0,0.351,9.72-2.725,8.44
			c0,0-14.978-2.995,0-11.164C194.355,277.965,193.542,280.379,197.08,280.69z"/>
		<path fill="none" stroke="#000000" stroke-width="0.4131" stroke-miterlimit="10" d="M196.743,280.69c0,0-0.351,9.72,2.725,8.44
			c0,0,14.978-2.995,0-11.164C199.468,277.965,200.281,280.379,196.743,280.69z"/>
		<path fill="none" stroke="#000000" stroke-width="0.4131" stroke-miterlimit="10" d="M197.08,274.996c0,0,0.351-9.72-2.725-8.44
			c0,0-14.978,2.995,0,11.164C194.355,277.721,193.542,275.308,197.08,274.996z"/>
	</g>
	<g>
		<circle fill="none" stroke="#000000" stroke-width="0.4131" stroke-miterlimit="10" cx="227.582" cy="249.222" r="2.725"/>
		<ellipse fill="#FFFFFF" cx="227.582" cy="249.141" rx="2.725" ry="3.386"/>
		<path fill="none" stroke="#000000" stroke-width="0.4131" stroke-miterlimit="10" d="M227.582,246.498c0,0-0.351-9.72,2.725-8.44
			c0,0,14.978,2.995,0,11.164C230.307,249.222,231.119,246.809,227.582,246.498z"/>
		<path fill="none" stroke="#000000" stroke-width="0.4131" stroke-miterlimit="10" d="M227.919,252.191c0,0,0.351,9.72-2.725,8.44
			c0,0-14.978-2.995,0-11.164C225.194,249.466,224.381,251.88,227.919,252.191z"/>
		<path fill="none" stroke="#000000" stroke-width="0.4131" stroke-miterlimit="10" d="M227.582,252.191c0,0-0.351,9.72,2.725,8.44
			c0,0,14.978-2.995,0-11.164C230.307,249.466,231.119,251.88,227.582,252.191z"/>
		<path fill="none" stroke="#000000" stroke-width="0.4131" stroke-miterlimit="10" d="M227.919,246.498c0,0,0.351-9.72-2.725-8.44
			c0,0-14.978,2.995,0,11.164C225.194,249.222,224.381,246.809,227.919,246.498z"/>
	</g>
	<g>
		<circle fill="none" stroke="#000000" stroke-width="0.4131" stroke-miterlimit="10" cx="196.743" cy="332.277" r="2.725"/>
		<ellipse fill="#FFFFFF" cx="196.743" cy="332.195" rx="2.725" ry="3.386"/>
		<path fill="none" stroke="#000000" stroke-width="0.4131" stroke-miterlimit="10" d="M196.743,329.552c0,0-0.351-9.72,2.725-8.44
			c0,0,14.978,2.995,0,11.164C199.468,332.277,200.281,329.863,196.743,329.552z"/>
		<path fill="none" stroke="#000000" stroke-width="0.4131" stroke-miterlimit="10" d="M197.08,335.246c0,0,0.351,9.72-2.725,8.44
			c0,0-14.978-2.995,0-11.164C194.355,332.521,193.542,334.934,197.08,335.246z"/>
		<path fill="none" stroke="#000000" stroke-width="0.4131" stroke-miterlimit="10" d="M196.743,335.246c0,0-0.351,9.72,2.725,8.44
			c0,0,14.978-2.995,0-11.164C199.468,332.521,200.281,334.934,196.743,335.246z"/>
		<path fill="none" stroke="#000000" stroke-width="0.4131" stroke-miterlimit="10" d="M197.08,329.552c0,0,0.351-9.72-2.725-8.44
			c0,0-14.978,2.995,0,11.164C194.355,332.277,193.542,329.863,197.08,329.552z"/>
	</g>
	<g>
		<circle fill="none" stroke="#000000" stroke-width="0.4131" stroke-miterlimit="10" cx="227.943" cy="308.741" r="2.725"/>
		<ellipse fill="#FFFFFF" cx="227.943" cy="308.659" rx="2.725" ry="3.386"/>
		<path fill="none" stroke="#000000" stroke-width="0.4131" stroke-miterlimit="10" d="M227.943,306.016c0,0-0.351-9.72,2.725-8.44
			c0,0,14.978,2.995,0,11.164C230.668,308.741,231.481,306.327,227.943,306.016z"/>
		<path fill="none" stroke="#000000" stroke-width="0.4131" stroke-miterlimit="10" d="M228.28,311.709c0,0,0.351,9.72-2.725,8.44
			c0,0-14.978-2.995,0-11.164C225.555,308.985,224.742,311.398,228.28,311.709z"/>
		<path fill="none" stroke="#000000" stroke-width="0.4131" stroke-miterlimit="10" d="M227.943,311.709c0,0-0.351,9.72,2.725,8.44
			c0,0,14.978-2.995,0-11.164C230.668,308.985,231.481,311.398,227.943,311.709z"/>
		<path fill="none" stroke="#000000" stroke-width="0.4131" stroke-miterlimit="10" d="M228.28,306.016c0,0,0.351-9.72-2.725-8.44
			c0,0-14.978,2.995,0,11.164C225.555,308.741,224.742,306.327,228.28,306.016z"/>
	</g>
	<g>
		<circle fill="none" stroke="#000000" stroke-width="0.4131" stroke-miterlimit="10" cx="257.781" cy="210.042" r="2.725"/>
		<ellipse fill="#FFFFFF" cx="257.781" cy="209.96" rx="2.725" ry="3.386"/>
		<path fill="none" stroke="#000000" stroke-width="0.4131" stroke-miterlimit="10" d="M257.781,207.317c0,0-0.351-9.72,2.725-8.44
			c0,0,14.978,2.995,0,11.164C260.506,210.042,261.319,207.628,257.781,207.317z"/>
		<path fill="none" stroke="#000000" stroke-width="0.4131" stroke-miterlimit="10" d="M258.118,213.011c0,0,0.351,9.72-2.725,8.44
			c0,0-14.978-2.995,0-11.164C255.393,210.286,254.58,212.699,258.118,213.011z"/>
		<path fill="none" stroke="#000000" stroke-width="0.4131" stroke-miterlimit="10" d="M257.781,213.011c0,0-0.351,9.72,2.725,8.44
			c0,0,14.978-2.995,0-11.164C260.506,210.286,261.319,212.699,257.781,213.011z"/>
		<path fill="none" stroke="#000000" stroke-width="0.4131" stroke-miterlimit="10" d="M258.118,207.317c0,0,0.351-9.72-2.725-8.44
			c0,0-14.978,2.995,0,11.164C255.393,210.042,254.58,207.628,258.118,207.317z"/>
	</g>
	<g>
		<circle fill="none" stroke="#000000" stroke-width="0.4131" stroke-miterlimit="10" cx="257.781" cy="277.721" r="2.725"/>
		<ellipse fill="#FFFFFF" cx="257.781" cy="277.639" rx="2.725" ry="3.386"/>
		<path fill="none" stroke="#000000" stroke-width="0.4131" stroke-miterlimit="10" d="M257.781,274.996c0,0-0.351-9.72,2.725-8.44
			c0,0,14.978,2.995,0,11.164C260.506,277.721,261.319,275.308,257.781,274.996z"/>
		<path fill="none" stroke="#000000" stroke-width="0.4131" stroke-miterlimit="10" d="M258.118,280.69c0,0,0.351,9.72-2.725,8.44
			c0,0-14.978-2.995,0-11.164C255.393,277.965,254.58,280.379,258.118,280.69z"/>
		<path fill="none" stroke="#000000" stroke-width="0.4131" stroke-miterlimit="10" d="M257.781,280.69c0,0-0.351,9.72,2.725,8.44
			c0,0,14.978-2.995,0-11.164C260.506,277.965,261.319,280.379,257.781,280.69z"/>
		<path fill="none" stroke="#000000" stroke-width="0.4131" stroke-miterlimit="10" d="M258.118,274.996c0,0,0.351-9.72-2.725-8.44
			c0,0-14.978,2.995,0,11.164C255.393,277.721,254.58,275.308,258.118,274.996z"/>
	</g>
	<g>
		<circle fill="none" stroke="#000000" stroke-width="0.4131" stroke-miterlimit="10" cx="288.62" cy="249.222" r="2.725"/>
		<ellipse fill="#FFFFFF" cx="288.62" cy="249.141" rx="2.725" ry="3.386"/>
		<path fill="none" stroke="#000000" stroke-width="0.4131" stroke-miterlimit="10" d="M288.62,246.498c0,0-0.351-9.72,2.725-8.44
			c0,0,14.978,2.995,0,11.164C291.345,249.222,292.158,246.809,288.62,246.498z"/>
		<path fill="none" stroke="#000000" stroke-width="0.4131" stroke-miterlimit="10" d="M288.957,252.191c0,0,0.351,9.72-2.725,8.44
			c0,0-14.978-2.995,0-11.164C286.232,249.466,285.419,251.88,288.957,252.191z"/>
		<path fill="none" stroke="#000000" stroke-width="0.4131" stroke-miterlimit="10" d="M288.62,252.191c0,0-0.351,9.72,2.725,8.44
			c0,0,14.978-2.995,0-11.164C291.345,249.466,292.158,251.88,288.62,252.191z"/>
		<path fill="none" stroke="#000000" stroke-width="0.4131" stroke-miterlimit="10" d="M288.957,246.498c0,0,0.351-9.72-2.725-8.44
			c0,0-14.978,2.995,0,11.164C286.232,249.222,285.419,246.809,288.957,246.498z"/>
	</g>
	<g>
		<circle fill="none" stroke="#000000" stroke-width="0.4131" stroke-miterlimit="10" cx="257.781" cy="332.277" r="2.725"/>
		<ellipse fill="#FFFFFF" cx="257.781" cy="332.195" rx="2.725" ry="3.386"/>
		<path fill="none" stroke="#000000" stroke-width="0.4131" stroke-miterlimit="10" d="M257.781,329.552c0,0-0.351-9.72,2.725-8.44
			c0,0,14.978,2.995,0,11.164C260.506,332.277,261.319,329.863,257.781,329.552z"/>
		<path fill="none" stroke="#000000" stroke-width="0.4131" stroke-miterlimit="10" d="M258.118,335.246c0,0,0.351,9.72-2.725,8.44
			c0,0-14.978-2.995,0-11.164C255.393,332.521,254.58,334.934,258.118,335.246z"/>
		<path fill="none" stroke="#000000" stroke-width="0.4131" stroke-miterlimit="10" d="M257.781,335.246c0,0-0.351,9.72,2.725,8.44
			c0,0,14.978-2.995,0-11.164C260.506,332.521,261.319,334.934,257.781,335.246z"/>
		<path fill="none" stroke="#000000" stroke-width="0.4131" stroke-miterlimit="10" d="M258.118,329.552c0,0,0.351-9.72-2.725-8.44
			c0,0-14.978,2.995,0,11.164C255.393,332.277,254.58,329.863,258.118,329.552z"/>
	</g>
	<g>
		<circle fill="none" stroke="#000000" stroke-width="0.4131" stroke-miterlimit="10" cx="288.981" cy="308.741" r="2.725"/>
		<ellipse fill="#FFFFFF" cx="288.981" cy="308.659" rx="2.725" ry="3.386"/>
		<path fill="none" stroke="#000000" stroke-width="0.4131" stroke-miterlimit="10" d="M288.981,306.016c0,0-0.351-9.72,2.725-8.44
			c0,0,14.978,2.995,0,11.164C291.706,308.741,292.519,306.327,288.981,306.016z"/>
		<path fill="none" stroke="#000000" stroke-width="0.4131" stroke-miterlimit="10" d="M289.318,311.709c0,0,0.351,9.72-2.725,8.44
			c0,0-14.978-2.995,0-11.164C286.594,308.985,285.781,311.398,289.318,311.709z"/>
		<path fill="none" stroke="#000000" stroke-width="0.4131" stroke-miterlimit="10" d="M288.981,311.709c0,0-0.351,9.72,2.725,8.44
			c0,0,14.978-2.995,0-11.164C291.706,308.985,292.519,311.398,288.981,311.709z"/>
		<path fill="none" stroke="#000000" stroke-width="0.4131" stroke-miterlimit="10" d="M289.318,306.016c0,0,0.351-9.72-2.725-8.44
			c0,0-14.978,2.995,0,11.164C286.594,308.741,285.781,306.327,289.318,306.016z"/>
	</g>
</g>
</svg>
