<?xml version="1.0" encoding="utf-8"?>
<!-- Generator: Adobe Illustrator 17.0.0, SVG Export Plug-In . SVG Version: 6.00 Build 0)  -->
<!DOCTYPE svg PUBLIC "-//W3C//DTD SVG 1.1 Tiny//EN" "http://www.w3.org/Graphics/SVG/1.1/DTD/svg11-tiny.dtd">
<svg version="1.1" baseProfile="tiny" id="Layer_1" xmlns="http://www.w3.org/2000/svg" xmlns:xlink="http://www.w3.org/1999/xlink"
	 x="0px" y="0px" width="1920px" height="309px" viewBox="0 0 1920 309" overflow="scroll" xml:space="preserve">
<rect x="-11" y="-27" width="1942" height="358"/>
<path fill="none" stroke="#FFB000" stroke-width="2" stroke-miterlimit="10" d="M1006,123h139.844c0,0-0.516-26.149-45.669-17.134
	c0,0-1.29-24.833-24.253-24.833c0,0-23.995,1.464-23.995,24.927C1051.927,105.96,1011.676,94,1006,123z"/>
<path fill="none" stroke="#FFB000" stroke-miterlimit="10" d="M822.838,189.5h79.006c0,0-0.292-15.023-25.801-9.93
	c0,0-0.729-14.154-13.702-14.154c0,0-13.556,1.014-13.556,14.27C848.785,179.686,826.045,172.5,822.838,189.5z"/>
<g>
	<path fill="none" stroke="#FFB000" stroke-width="3" stroke-miterlimit="10" d="M79.778,218.5c0,0,9.789-93.377,56.284-135.381
		S101.802,150.5,107.92,218.5H79.778z"/>
	<path fill="none" stroke="#FFB000" stroke-width="3" stroke-miterlimit="10" d="M144.559,73.78c0,0-54.004-5.78-86.781,36.72"/>
	<path fill="none" stroke="#FFB000" stroke-width="3" stroke-miterlimit="10" d="M144.559,67c0,0-17.559-36-63.559-24"/>
	<path fill="none" stroke="#FFB000" stroke-width="3" stroke-miterlimit="10" d="M155,73.78c0,0,20-19.749,54-0.264"/>
	<path fill="none" stroke="#FFB000" stroke-width="3" stroke-miterlimit="10" d="M151,63.776c0,0,12-36.385,54-37.581"/>
	<path fill="none" stroke="#FFB000" stroke-width="3" stroke-miterlimit="10" d="M155,83c0,0,22,8.122,36,37.061"/>
</g>
<g>
	<path fill="none" stroke="#FFB000" stroke-width="2" stroke-miterlimit="10" d="M115.261,215.763c0,0,20.392-46.841,51.404-61.009
		c31.012-14.168-28.825,29.341-36.803,65.624L115.261,215.763z"/>
	<path fill="none" stroke="#FFB000" stroke-width="1.6324" stroke-miterlimit="10" d="M172.755,150.826
		c0,0-27.07-11.855-51.046,4.819"/>
	<path fill="none" stroke="#FFB000" stroke-width="1.6324" stroke-miterlimit="10" d="M173.867,147.309
		c0,0-3.206-21.557-29.04-22.875"/>
	<path fill="none" stroke="#FFB000" stroke-width="1.6324" stroke-miterlimit="10" d="M178.172,152.539
		c0,0,13.615-6.966,28.06,8.719"/>
	<path fill="none" stroke="#FFB000" stroke-width="1.6324" stroke-miterlimit="10" d="M177.738,146.692
		c0,0,12.193-16.91,34.18-10.642"/>
	<path fill="none" stroke="#FFB000" stroke-width="1.6324" stroke-miterlimit="10" d="M176.66,157.322c0,0,10.082,7.822,12.6,25.132
		"/>
</g>
<path fill="none" stroke="#FFB000" stroke-width="3" stroke-miterlimit="10" d="M-0.027,215.781c0,0,654.816,6.001,876.839,93.009"
	/>
<polygon fill="none" stroke="#FFB000" stroke-width="2" stroke-miterlimit="10" points="362,230 362,164.958 366,164.703 366,230 
	"/>
<polygon fill="none" stroke="#FFB000" stroke-width="3" stroke-miterlimit="10" points="307,164.958 423.329,165.978 
	364.371,134.779 "/>
<polyline fill="none" stroke="#FFB000" stroke-width="3" stroke-miterlimit="10" points="401.876,183.914 423.329,215.5 519,215.5 
	"/>
<line fill="none" stroke="#FFB000" stroke-width="3" stroke-miterlimit="10" x1="423.5" y1="216" x2="423.5" y2="234"/>
<line fill="none" stroke="#FFB000" stroke-width="3" stroke-miterlimit="10" x1="490.444" y1="215.781" x2="519" y2="241.998"/>
<line fill="none" stroke="#FFB000" stroke-width="3" stroke-miterlimit="10" x1="793" y1="281.5" x2="1959" y2="281.5"/>
</svg>
