<?xml version="1.0" encoding="utf-8"?>
<!-- Generator: Adobe Illustrator 17.0.0, SVG Export Plug-In . SVG Version: 6.00 Build 0)  -->
<!DOCTYPE svg PUBLIC "-//W3C//DTD SVG 1.1 Tiny//EN" "http://www.w3.org/Graphics/SVG/1.1/DTD/svg11-tiny.dtd">
<svg version="1.1" baseProfile="tiny" id="Layer_1" xmlns="http://www.w3.org/2000/svg" xmlns:xlink="http://www.w3.org/1999/xlink"
	 x="0px" y="0px" width="214.378px" height="214.378px" viewBox="0 0 214.378 214.378" overflow="scroll" xml:space="preserve">
<g>
	<circle fill="#FFFFFF" cx="107" cy="107.674" r="101.479"/>
	<g>
		<path fill="#0A0A0A" d="M168.306,63.554c-0.941-0.115-1.468-0.643-1.584-1.584c-0.118-0.938-0.149-1.963-0.088-3.08
			c0.058-1.114,0.115-2.2,0.176-3.256c0.058-1.056-0.206-1.876-0.792-2.464c-0.352-0.352-1.408-0.555-3.168-0.616
			c-1.76-0.058-3.405-0.088-4.928-0.088c-4.813-0.352-9.24-0.115-13.289,0.704c-4.048,0.822-7.95,1.584-11.704,2.288
			c-5.165,1.526-9.829,3.374-13.992,5.544c-4.167,2.173-8.096,4.518-11.792,7.04c-3.696,2.525-7.277,5.135-10.736,7.832
			c-3.462,2.701-7.128,5.341-11.001,7.92c-1.878,1.174-3.344,2.288-4.4,3.344c-1.056,1.056-2.525,2.348-4.4,3.872
			c-1.878,1.408-3.493,2.876-4.84,4.4c-1.35,1.526-2.376,3.229-3.08,5.104c-1.174,3.757-1.438,6.806-0.792,9.152
			c0.643,2.348,1.73,4.461,3.256,6.336c1.056,1.644,1.964,3.141,2.728,4.488c0.762,1.35,1.436,2.64,2.024,3.872
			c0.586,1.232,1.26,2.464,2.024,3.696c0.762,1.232,1.672,2.613,2.728,4.136c2.698-1.171,4.868-2.2,6.512-3.08
			c1.642-0.88,3.578-2.024,5.808-3.432c3.402-1.876,6.364-3.696,8.888-5.456c2.522-1.76,5.484-3.402,8.888-4.928
			c0.704-0.352,1.436-0.704,2.2-1.056c0.762-0.352,1.496-0.528,2.2-0.528c0.352,0,0.938,0.206,1.76,0.616
			c0.82,0.412,1.232,0.968,1.232,1.672s-0.528,1.408-1.584,2.112c-1.056,0.704-1.76,1.232-2.112,1.584
			c-5.28,3.052-10.59,6.16-15.928,9.328c-5.341,3.168-10.648,6.454-15.929,9.856c2.698,5.632,5.778,11.119,9.24,16.456
			c3.46,5.341,6.306,11.176,8.536,17.513c0.352,1.174,0.528,2.349,0.528,3.52c0,1.174-0.176,1.997-0.528,2.464
			c-0.94,0.352-1.848,0.264-2.728-0.264c-0.88-0.528-1.702-1.202-2.464-2.024c-0.765-0.82-1.408-1.672-1.936-2.552
			c-0.528-0.88-0.853-1.496-0.968-1.848c-2.582-4.928-5.046-9.972-7.392-15.136c-2.349-5.162-4.813-9.972-7.392-14.433
			c-2.23,1.174-4.197,2.261-5.896,3.256c-1.702,0.998-3.669,1.908-5.896,2.728c-1.293-0.938-1.672-1.875-1.144-2.816
			c0.528-0.938,1.408-1.848,2.64-2.728c1.232-0.88,2.464-1.787,3.696-2.728c1.232-0.938,1.963-1.876,2.2-2.816
			c-1.526-3.05-3.168-5.748-4.928-8.096c-1.76-2.346-3.581-4.81-5.456-7.392c-1.878-2.698-3.696-5.396-5.456-8.096
			c-1.76-2.698-2.64-5.924-2.64-9.68c0-2.58,0.498-5.104,1.496-7.568c0.996-2.464,2.2-4.634,3.608-6.512
			c4.458-5.162,9.796-9.532,16.016-13.113c6.218-3.578,12.497-7.068,18.833-10.472c4.458-2.579,8.888-4.84,13.288-6.776
			c4.4-1.936,8.828-3.842,13.289-5.72c4.458-1.876,9.328-3.724,14.608-5.544c5.28-1.818,10.736-2.962,16.369-3.432
			c2.932,0,6.1,0.5,9.504,1.496c3.402,0.998,5.866,2.261,7.392,3.784c1.523,1.878,2.258,4.078,2.2,6.6
			C171.15,59.478,170.182,61.678,168.306,63.554z"/>
	</g>
</g>
</svg>
