<?xml version="1.0" encoding="utf-8"?>
<!-- Generator: Adobe Illustrator 17.0.0, SVG Export Plug-In . SVG Version: 6.00 Build 0)  -->
<!DOCTYPE svg PUBLIC "-//W3C//DTD SVG 1.1 Tiny//EN" "http://www.w3.org/Graphics/SVG/1.1/DTD/svg11-tiny.dtd">
<svg version="1.1" baseProfile="tiny" id="Layer_1" xmlns="http://www.w3.org/2000/svg" xmlns:xlink="http://www.w3.org/1999/xlink"
	 x="0px" y="0px" width="65.5px" height="65.5px" viewBox="0 0 65.5 65.5" overflow="scroll" xml:space="preserve">
<g>
	<circle fill="none" stroke="#FFB000" stroke-width="1.9615" stroke-miterlimit="10" cx="32.75" cy="33.315" r="29.687"/>
	<g>
		<path fill="#FFB000" d="M31.966,16.144c0.309,0.191,0.655,0.47,1.04,0.837c0.369,0.383,0.731,0.856,1.086,1.413
			c0.34,0.527,0.64,1.148,0.903,1.867c0.216,0.717,0.323,1.556,0.323,2.514c-0.028,1.755-0.416,3.16-1.163,4.214
			c-0.365,0.51-0.752,0.981-1.161,1.412c-0.454,0.429-0.936,0.87-1.447,1.316c-0.293,0.303-0.563,0.646-0.811,1.03
			c-0.292,0.399-0.439,0.861-0.439,1.388c0,0.514,0.15,0.935,0.45,1.27c0.254,0.32,0.502,0.6,0.743,0.839l1.666,1.364
			c1.034,0.848,1.941,1.778,2.721,2.8c0.734,1.039,1.117,2.394,1.149,4.069c0,2.379-1.052,4.484-3.152,6.322
			c-2.175,1.9-5.32,2.88-9.426,2.945c-3.438-0.032-6.004-0.765-7.7-2.197c-1.709-1.34-2.566-2.94-2.566-4.804
			c0-0.907,0.277-1.921,0.836-3.036c0.539-1.114,1.517-2.094,2.933-2.938c1.588-0.906,3.258-1.514,5.008-1.816
			c1.733-0.254,3.171-0.398,4.317-0.43c-0.354-0.466-0.669-0.963-0.946-1.493c-0.323-0.513-0.483-1.132-0.483-1.852
			c0-0.433,0.061-0.797,0.183-1.084c0.108-0.306,0.209-0.585,0.3-0.843c-0.557,0.063-1.084,0.095-1.576,0.095
			c-2.614-0.032-4.605-0.855-5.975-2.466c-1.435-1.502-2.153-3.249-2.153-5.243c0-2.412,1.015-4.596,3.049-6.56
			c1.395-1.148,2.845-1.897,4.348-2.25c1.489-0.303,2.885-0.455,4.186-0.455h9.815l-3.031,1.77h-3.027V16.144z M33.86,44.397
			c0-1.246-0.406-2.331-1.218-3.256c-0.86-0.878-2.204-1.955-4.032-3.234c-0.314-0.032-0.68-0.047-1.102-0.047
			c-0.25-0.031-0.891,0-1.922,0.095c-1.015,0.144-2.055,0.375-3.118,0.695c-0.25,0.096-0.6,0.24-1.053,0.432
			c-0.454,0.207-0.914,0.503-1.384,0.886c-0.454,0.399-0.836,0.893-1.148,1.485c-0.361,0.623-0.539,1.374-0.539,2.251
			c0,1.724,0.779,3.145,2.342,4.262c1.486,1.117,3.516,1.692,6.095,1.725c2.313-0.033,4.08-0.544,5.297-1.533
			C33.267,47.182,33.86,45.93,33.86,44.397z M27.018,30.01c1.292-0.048,2.369-0.513,3.23-1.393c0.416-0.623,0.683-1.263,0.801-1.919
			c0.071-0.657,0.108-1.206,0.108-1.656c0-1.934-0.495-3.886-1.485-5.852c-0.465-0.943-1.076-1.712-1.833-2.303
			c-0.775-0.558-1.664-0.855-2.668-0.887c-1.33,0.032-2.436,0.568-3.318,1.607c-0.744,1.088-1.1,2.303-1.065,3.647
			c0,1.775,0.518,3.62,1.557,5.541c0.504,0.895,1.151,1.654,1.948,2.278C25.087,29.698,25.995,30.01,27.018,30.01z"/>
		<polygon fill="#FFB000" points="51.319,19.735 46.17,19.735 46.17,14.584 43.674,14.584 43.674,19.735 38.525,19.735 
			38.525,22.23 43.674,22.23 43.674,27.379 46.17,27.379 46.17,22.23 51.319,22.23 		"/>
	</g>
</g>
</svg>
