<?xml version="1.0" encoding="utf-8"?>
<!-- Generator: Adobe Illustrator 17.0.0, SVG Export Plug-In . SVG Version: 6.00 Build 0)  -->
<!DOCTYPE svg PUBLIC "-//W3C//DTD SVG 1.1 Tiny//EN" "http://www.w3.org/Graphics/SVG/1.1/DTD/svg11-tiny.dtd">
<svg version="1.1" baseProfile="tiny" id="Layer_1" xmlns="http://www.w3.org/2000/svg" xmlns:xlink="http://www.w3.org/1999/xlink"
	 x="0px" y="0px" width="65.5px" height="65.5px" viewBox="0 0 65.5 65.5" overflow="scroll" xml:space="preserve">
<g>
	<circle fill="none" stroke="#FFB000" stroke-width="1.9615" stroke-miterlimit="10" cx="33.157" cy="33.315" r="29.687"/>
	<path fill="#FFB000" d="M49.174,22.872c-1.209,0.536-2.508,0.899-3.871,1.061c1.391-0.834,2.461-2.154,2.963-3.728
		c-1.301,0.772-2.742,1.334-4.278,1.636c-1.23-1.311-2.982-2.129-4.92-2.129c-3.722,0-6.74,3.018-6.74,6.739
		c0,0.529,0.06,1.042,0.174,1.535c-5.6-0.28-10.566-2.963-13.891-7.042c-0.579,0.997-0.912,2.154-0.912,3.389
		c0,2.337,1.189,4.402,2.997,5.609c-1.104-0.034-2.143-0.339-3.052-0.843v0.085c0,3.265,2.324,5.989,5.405,6.608
		c-0.565,0.153-1.162,0.238-1.776,0.238c-0.433,0-0.857-0.043-1.267-0.123c0.857,2.678,3.346,4.625,6.294,4.682
		c-2.305,1.807-5.211,2.885-8.37,2.885c-0.543,0-1.079-0.033-1.606-0.094c2.982,1.91,6.525,3.027,10.332,3.027
		c12.395,0,19.174-10.267,19.174-19.174c0-0.291-0.008-0.582-0.019-0.873C47.127,25.411,48.269,24.224,49.174,22.872z"/>
</g>
</svg>
