<?xml version="1.0" encoding="utf-8"?>
<!-- Generator: Adobe Illustrator 17.0.0, SVG Export Plug-In . SVG Version: 6.00 Build 0)  -->
<!DOCTYPE svg PUBLIC "-//W3C//DTD SVG 1.1 Tiny//EN" "http://www.w3.org/Graphics/SVG/1.1/DTD/svg11-tiny.dtd">
<svg version="1.1" baseProfile="tiny" id="Layer_1" xmlns="http://www.w3.org/2000/svg" xmlns:xlink="http://www.w3.org/1999/xlink"
	 x="0px" y="0px" width="65.5px" height="65.5px" viewBox="0 0 65.5 65.5" overflow="scroll" xml:space="preserve">
<g>
	<circle fill="none" stroke="#FFB000" stroke-width="1.9615" stroke-miterlimit="10" cx="32.75" cy="33.315" r="29.687"/>
	<g>
		<path fill="#FFB000" d="M29.464,13.237H27.22l-1.514,5.82l-1.575-5.82h-2.336c0.467,1.373,0.956,2.754,1.423,4.129
			c0.711,2.067,1.156,3.625,1.357,4.689v6.003h2.22v-6.003L29.464,13.237z M35.396,24.482v-3.869c0-1.18-0.203-2.042-0.622-2.602
			c-0.555-0.754-1.332-1.132-2.335-1.132c-0.997,0-1.777,0.378-2.331,1.132c-0.426,0.559-0.627,1.422-0.627,2.602v3.869
			c0,1.174,0.201,2.044,0.627,2.598c0.553,0.753,1.334,1.131,2.331,1.131c1.002,0,1.78-0.378,2.335-1.131
			C35.194,26.525,35.396,25.656,35.396,24.482z M33.394,24.859c0,1.022-0.309,1.533-0.954,1.533c-0.646,0-0.956-0.511-0.956-1.533
			v-4.647c0-1.022,0.31-1.531,0.956-1.531c0.645,0,0.954,0.509,0.954,1.531V24.859z M42.798,28.058V17.013h-2.002v8.441
			c-0.445,0.627-0.865,0.937-1.265,0.937c-0.269,0-0.425-0.158-0.469-0.469c-0.025-0.065-0.025-0.309-0.025-0.779v-8.131h-1.995
			v8.733c0,0.779,0.068,1.308,0.178,1.642c0.199,0.56,0.644,0.822,1.289,0.822c0.73,0,1.489-0.444,2.287-1.358v1.205h2.002V28.058z"
			/>
		<g>
			<path fill="#FFB000" d="M36.522,39.272c-0.325,0-0.656,0.156-0.988,0.481v6.663c0.331,0.33,0.662,0.486,0.988,0.486
				c0.571,0,0.862-0.486,0.862-1.473v-4.665C37.384,39.779,37.093,39.272,36.522,39.272z"/>
			<path fill="#FFB000" d="M43.872,39.272c-0.662,0-0.994,0.507-0.994,1.517v1.01h1.979v-1.01
				C44.858,39.779,44.526,39.272,43.872,39.272z"/>
			<path fill="#FFB000" d="M48.713,33.715c-0.4-1.741-1.825-3.027-3.542-3.218c-4.064-0.455-8.178-0.456-12.271-0.455
				c-4.094-0.001-8.208,0-12.271,0.455c-1.716,0.191-3.142,1.477-3.542,3.218c-0.571,2.484-0.577,5.19-0.577,7.748
				c0,2.555,0,5.266,0.57,7.747c0.4,1.742,1.825,3.027,3.542,3.22c4.064,0.453,8.177,0.456,12.271,0.453
				c4.094,0.003,8.207,0,12.271-0.453c1.716-0.193,3.142-1.478,3.542-3.22c0.573-2.481,0.575-5.192,0.575-7.747
				C49.281,38.905,49.283,36.199,48.713,33.715z M25.857,35.949h-2.374v12.603h-2.202V35.949h-2.33v-2.066h6.906V35.949z
				 M31.841,48.552h-1.983v-1.191c-0.786,0.903-1.534,1.343-2.263,1.343c-0.639,0-1.079-0.259-1.275-0.814
				c-0.109-0.332-0.175-0.852-0.175-1.625v-8.643h1.98v8.047c0,0.463,0,0.706,0.018,0.77c0.048,0.307,0.198,0.463,0.463,0.463
				c0.397,0,0.814-0.307,1.252-0.926v-8.354h1.983V48.552z M39.364,45.273c0,1.01-0.068,1.739-0.2,2.202
				c-0.264,0.813-0.794,1.229-1.583,1.229c-0.705,0-1.384-0.392-2.046-1.21v1.059h-1.98v-14.67h1.98v4.791
				c0.64-0.786,1.319-1.185,2.046-1.185c0.79,0,1.319,0.415,1.583,1.233c0.132,0.44,0.2,1.164,0.2,2.197V45.273z M46.839,43.449
				h-3.961v1.936c0,1.013,0.331,1.517,1.01,1.517c0.487,0,0.772-0.266,0.886-0.795c0.018-0.108,0.042-0.545,0.042-1.34h2.022v0.288
				c0,0.637-0.025,1.077-0.044,1.277c-0.067,0.437-0.222,0.836-0.461,1.186c-0.549,0.793-1.361,1.185-2.395,1.185
				c-1.038,0-1.826-0.374-2.398-1.121c-0.42-0.545-0.636-1.41-0.636-2.569v-3.829c0-1.169,0.19-2.023,0.612-2.576
				c0.571-0.749,1.361-1.121,2.371-1.121c0.994,0,1.781,0.371,2.336,1.121c0.415,0.552,0.614,1.407,0.614,2.576v2.265H46.839z"/>
		</g>
	</g>
</g>
</svg>
