<?xml version="1.0" encoding="utf-8"?>
<!-- Generator: Adobe Illustrator 17.0.0, SVG Export Plug-In . SVG Version: 6.00 Build 0)  -->
<!DOCTYPE svg PUBLIC "-//W3C//DTD SVG 1.1 Tiny//EN" "http://www.w3.org/Graphics/SVG/1.1/DTD/svg11-tiny.dtd">
<svg version="1.1" baseProfile="tiny" id="Layer_1" xmlns="http://www.w3.org/2000/svg" xmlns:xlink="http://www.w3.org/1999/xlink"
	 x="0px" y="0px" width="482px" height="72px" viewBox="0 0 482 72" overflow="scroll" xml:space="preserve">
<rect x="-11" y="-14" fill="#FFFFFF" width="493" height="100"/>
<rect x="455" y="-11" fill="#FFB000" width="77" height="97"/>
<g>
	<path d="M6.008-12.719H18.77L37.868,41.26h-12.23l-3.563-11.096H2.196L-1.463,41.26h-11.799L6.008-12.719z M5.264,20.863h13.825
		L12.27-0.377L5.264,20.863z"/>
	<path d="M66.066,0.41C66.2,0.423,66.5,0.441,66.963,0.465v10.693c-0.658-0.073-1.244-0.122-1.758-0.146
		c-0.512-0.024-0.928-0.037-1.244-0.037c-4.199,0-7.02,1.368-8.46,4.102c-0.806,1.538-1.208,3.906-1.208,7.104v19.08H43.782V1.344
		h9.961v6.958c1.611-2.661,3.015-4.48,4.212-5.457c1.953-1.635,4.491-2.454,7.617-2.454C65.768,0.392,65.932,0.398,66.066,0.41z"/>
	<path d="M96.956,15.663c-0.196-1.489-0.698-2.832-1.505-4.028c-1.176-1.611-2.998-2.417-5.47-2.417
		c-3.524,0-5.936,1.746-7.231,5.237c-0.686,1.851-1.028,4.311-1.028,7.378c0,2.923,0.343,5.273,1.028,7.05
		c1.248,3.32,3.597,4.98,7.048,4.98c2.447,0,4.185-0.659,5.213-1.978c1.027-1.318,1.651-3.027,1.872-5.127h10.656
		c-0.244,3.174-1.393,6.177-3.445,9.009c-3.275,4.565-8.126,6.848-14.553,6.848c-6.428,0-11.156-1.904-14.188-5.713
		c-3.029-3.809-4.545-8.747-4.545-14.814c0-6.847,1.674-12.175,5.021-15.984s7.967-5.713,13.857-5.713
		c5.01,0,9.109,1.123,12.299,3.369c3.188,2.247,5.076,6.213,5.663,11.902H96.956V15.663z"/>
	<path d="M143.478,1.565c2.004,0.855,3.652,2.163,4.94,3.922c1.094,1.491,1.762,3.025,2.005,4.601
		c0.243,1.576,0.365,4.148,0.365,7.715v23.458h-10.656V16.954c0-2.151-0.364-3.887-1.092-5.206
		c-0.945-1.857-2.738-2.787-5.379-2.787c-2.738,0-4.816,0.923-6.234,2.769c-1.418,1.845-2.127,4.479-2.127,7.9v21.631h-10.438
		v-53.796H125.3V6.507c1.508-2.319,3.252-3.937,5.232-4.852c1.98-0.916,4.065-1.374,6.254-1.374
		C139.242,0.282,141.473,0.71,143.478,1.565z"/>
	<path d="M171.334-3.417H160.75v-9.631h10.584V-3.417z M160.75,1.344h10.584v39.917H160.75V1.344z"/>
	<path d="M206.032,1.344h11.206l-14.414,39.917h-11.006L177.504,1.344h11.719l8.313,29.443L206.032,1.344z"/>
	<path d="M249.164,2.153c2.783,1.248,5.084,3.216,6.897,5.905c1.635,2.372,2.695,5.122,3.181,8.252
		c0.281,1.834,0.395,4.475,0.344,7.922h-29.072c0.162,4.004,1.553,6.812,4.174,8.423c1.594,1.001,3.512,1.501,5.754,1.501
		c2.379,0,4.311-0.61,5.796-1.831c0.81-0.659,1.526-1.575,2.147-2.747h10.656c-0.281,2.368-1.57,4.773-3.869,7.214
		c-3.576,3.882-8.582,5.823-15.018,5.823c-5.313,0-10-1.637-14.061-4.911s-6.091-8.602-6.091-15.981
		c0-6.915,1.833-12.217,5.499-15.907s8.424-5.535,14.273-5.535C243.25,0.282,246.379,0.905,249.164,2.153z M233.55,11.169
		c-1.476,1.521-2.401,3.58-2.78,6.179h17.98c-0.189-2.771-1.115-4.873-2.779-6.308c-1.664-1.434-3.729-2.152-6.19-2.152
		C237.102,8.888,235.024,9.648,233.55,11.169z"/>
	<path d="M272.957,28.517c0.221,1.855,0.699,3.174,1.436,3.955c1.3,1.392,3.703,2.087,7.211,2.087c2.061,0,3.699-0.305,4.913-0.916
		c1.214-0.61,1.821-1.525,1.821-2.747c0-1.172-0.489-2.063-1.467-2.673c-0.979-0.61-4.619-1.66-10.919-3.149
		c-4.536-1.123-7.731-2.527-9.587-4.211c-1.855-1.66-2.783-4.052-2.783-7.178c0-3.686,1.449-6.854,4.349-9.503
		c2.899-2.648,6.979-3.973,12.239-3.973c4.991,0,9.059,0.995,12.203,2.985c3.143,1.99,4.947,5.426,5.413,10.309H287.35
		c-0.147-1.342-0.527-2.404-1.139-3.186c-1.151-1.416-3.109-2.124-5.876-2.124c-2.276,0-3.898,0.354-4.865,1.062
		c-0.968,0.708-1.45,1.538-1.45,2.49c0,1.196,0.514,2.063,1.542,2.6c1.028,0.562,4.66,1.526,10.897,2.893
		c4.157,0.977,7.274,2.454,9.35,4.431c2.051,2.002,3.076,4.504,3.076,7.507c0,3.955-1.475,7.184-4.422,9.687
		c-2.948,2.502-7.504,3.753-13.668,3.753c-6.287,0-10.93-1.325-13.926-3.973c-2.998-2.649-4.496-6.024-4.496-10.126
		C262.373,28.517,272.957,28.517,272.957,28.517z"/>
</g>
</svg>
