<?xml version="1.0" encoding="utf-8"?>
<!-- Generator: Adobe Illustrator 17.0.0, SVG Export Plug-In . SVG Version: 6.00 Build 0)  -->
<!DOCTYPE svg PUBLIC "-//W3C//DTD SVG 1.1 Tiny//EN" "http://www.w3.org/Graphics/SVG/1.1/DTD/svg11-tiny.dtd">
<svg version="1.1" baseProfile="tiny" id="Layer_1" xmlns="http://www.w3.org/2000/svg" xmlns:xlink="http://www.w3.org/1999/xlink"
	 x="0px" y="0px" width="482px" height="72px" viewBox="0 0 482 72" overflow="scroll" xml:space="preserve">
<rect x="-11" y="-14" fill="#FFFFFF" width="493" height="100"/>
<rect x="455" y="-11" fill="#FFB000" width="77" height="97"/>
<g>
	<path d="M4.558-8.977c4.348-4.443,9.879-6.665,16.594-6.665c8.984,0,15.555,2.979,19.709,8.936
		c2.295,3.345,3.525,6.702,3.695,10.071H33.277c-0.718-2.587-1.639-4.541-2.763-5.859c-2.009-2.344-4.987-3.516-8.933-3.516
		c-4.019,0-7.187,1.654-9.508,4.962S8.594,6.941,8.594,12.995c0,6.055,1.224,10.59,3.672,13.604
		c2.448,3.016,5.559,4.523,9.331,4.523c3.869,0,6.818-1.294,8.85-3.882c1.121-1.392,2.053-3.479,2.793-6.262h11.207
		c-0.967,5.884-3.437,10.669-7.409,14.355c-3.974,3.687-9.063,5.53-15.271,5.53c-7.681,0-13.719-2.49-18.115-7.471
		c-4.396-5.004-6.594-11.865-6.594-20.581C-2.942,3.388-0.442-3.874,4.558-8.977z"/>
	<path d="M86.011,34.479c-3.369,4.159-8.484,6.238-15.344,6.238c-6.861,0-11.976-2.08-15.345-6.238s-5.054-9.166-5.054-15.02
		c0-5.757,1.685-10.745,5.054-14.965s8.483-6.33,15.345-6.33c6.859,0,11.975,2.11,15.344,6.33s5.054,9.208,5.054,14.965
		C91.065,25.314,89.38,30.32,86.011,34.479z M77.661,28.711c1.635-2.17,2.453-5.253,2.453-9.252c0-3.998-0.818-7.076-2.453-9.233
		C76.025,8.069,73.682,6.99,70.63,6.99c-3.053,0-5.401,1.079-7.05,3.236c-1.647,2.157-2.472,5.235-2.472,9.233
		c0,3.999,0.824,7.082,2.472,9.252c1.648,2.169,3.997,3.254,7.05,3.254C73.682,31.965,76.026,30.881,77.661,28.711z"/>
	<path d="M130.724,1.735c2.613,2.16,3.92,5.744,3.92,10.748v26.88H123.95v-24.28c0-2.1-0.279-3.711-0.836-4.834
		c-1.019-2.051-2.957-3.076-5.816-3.076c-3.515,0-5.926,1.501-7.234,4.504c-0.679,1.587-1.018,3.613-1.018,6.079v21.606H98.609
		V-0.481h10.107v5.823c1.336-2.051,2.602-3.528,3.793-4.431c2.139-1.611,4.85-2.417,8.132-2.417
		C124.749-1.507,128.11-0.427,130.724,1.735z"/>
	<path d="M140.247,7.246v-7.434h5.566v-11.133h10.326v11.133h6.482v7.434h-6.482V28.34c0,1.636,0.207,2.655,0.623,3.058
		c0.415,0.402,1.685,0.604,3.809,0.604c0.316,0,0.652-0.006,1.007-0.018s0.702-0.031,1.044-0.055v7.8l-4.943,0.183
		c-4.932,0.17-8.301-0.683-10.107-2.563c-1.172-1.196-1.758-3.04-1.758-5.53V7.246H140.247z"/>
	<path d="M185.134,15.083c1.942-0.244,3.332-0.549,4.168-0.916c1.501-0.635,2.251-1.624,2.251-2.966
		c0-1.635-0.575-2.765-1.727-3.387c-1.15-0.623-2.84-0.934-5.066-0.934c-2.499,0-4.27,0.61-5.309,1.831
		c-0.743,0.903-1.237,2.124-1.485,3.662h-10.07c0.221-3.491,1.201-6.359,2.942-8.606c2.771-3.516,7.527-5.273,14.271-5.273
		c4.389,0,8.287,0.867,11.695,2.6c3.408,1.734,5.113,5.005,5.113,9.814v18.311c0,1.27,0.023,2.808,0.072,4.614
		c0.074,1.368,0.281,2.295,0.623,2.783c0.342,0.489,0.854,0.892,1.538,1.208v1.538h-11.353c-0.317-0.806-0.537-1.562-0.659-2.271
		c-0.122-0.708-0.22-1.514-0.293-2.417c-1.448,1.563-3.119,2.893-5.01,3.992c-2.259,1.294-4.813,1.941-7.661,1.941
		c-3.635,0-6.637-1.032-9.006-3.095c-2.371-2.063-3.555-4.986-3.555-8.771c0-4.907,1.906-8.459,5.718-10.657
		c2.091-1.196,5.165-2.051,9.224-2.563L185.134,15.083z M191.516,19.953c-0.669,0.416-1.343,0.751-2.023,1.007
		c-0.681,0.257-1.614,0.495-2.803,0.714l-2.376,0.439c-2.227,0.391-3.826,0.867-4.797,1.428c-1.645,0.952-2.466,2.43-2.466,4.431
		c0,1.782,0.502,3.07,1.506,3.864c1.004,0.794,2.226,1.19,3.663,1.19c2.281,0,4.381-0.659,6.303-1.978s2.918-3.723,2.993-7.214
		L191.516,19.953L191.516,19.953z"/>
	<path d="M234.912,13.764c-0.196-1.489-0.698-2.832-1.505-4.028c-1.176-1.611-2.998-2.417-5.47-2.417
		c-3.524,0-5.936,1.746-7.231,5.237c-0.686,1.851-1.028,4.311-1.028,7.378c0,2.923,0.343,5.273,1.028,7.05
		c1.248,3.32,3.597,4.98,7.048,4.98c2.447,0,4.185-0.659,5.213-1.978c1.027-1.318,1.651-3.027,1.872-5.127h10.656
		c-0.244,3.174-1.393,6.177-3.445,9.009c-3.275,4.565-8.126,6.848-14.553,6.848c-6.428,0-11.156-1.904-14.188-5.713
		c-3.029-3.809-4.545-8.747-4.545-14.814c0-6.847,1.674-12.175,5.021-15.984s7.967-5.713,13.857-5.713
		c5.01,0,9.109,1.123,12.299,3.369c3.188,2.247,5.076,6.213,5.663,11.902h-10.692V13.764z"/>
	<path d="M248.646,7.246v-7.434h5.566v-11.133h10.326v11.133h6.482v7.434h-6.482V28.34c0,1.636,0.207,2.655,0.623,3.058
		c0.415,0.402,1.685,0.604,3.809,0.604c0.316,0,0.652-0.006,1.007-0.018s0.702-0.031,1.044-0.055v7.8l-4.943,0.183
		c-4.932,0.17-8.301-0.683-10.107-2.563c-1.172-1.196-1.758-3.04-1.758-5.53V7.246H248.646z"/>
	<path d="M285.816,26.618c0.221,1.855,0.699,3.174,1.436,3.955c1.3,1.392,3.703,2.087,7.211,2.087c2.061,0,3.699-0.305,4.913-0.916
		c1.214-0.61,1.821-1.525,1.821-2.747c0-1.172-0.489-2.063-1.467-2.673c-0.979-0.61-4.619-1.66-10.919-3.149
		c-4.536-1.123-7.731-2.527-9.587-4.211c-1.855-1.66-2.783-4.052-2.783-7.178c0-3.686,1.449-6.854,4.349-9.503
		c2.899-2.648,6.979-3.973,12.239-3.973c4.991,0,9.059,0.995,12.203,2.985c3.143,1.99,4.947,5.426,5.413,10.309h-10.437
		c-0.147-1.342-0.527-2.404-1.139-3.186c-1.151-1.416-3.109-2.124-5.876-2.124c-2.276,0-3.898,0.354-4.865,1.062
		c-0.968,0.708-1.45,1.538-1.45,2.49c0,1.196,0.514,2.063,1.542,2.6c1.028,0.562,4.66,1.526,10.897,2.893
		c4.157,0.977,7.274,2.454,9.35,4.431c2.051,2.002,3.076,4.504,3.076,7.507c0,3.955-1.475,7.184-4.422,9.687
		c-2.948,2.502-7.504,3.753-13.668,3.753c-6.287,0-10.93-1.325-13.926-3.973c-2.998-2.649-4.496-6.024-4.496-10.126
		C275.231,26.618,285.816,26.618,285.816,26.618z"/>
</g>
</svg>
