<?xml version="1.0" encoding="utf-8"?>
<!-- Generator: Adobe Illustrator 17.0.0, SVG Export Plug-In . SVG Version: 6.00 Build 0)  -->
<!DOCTYPE svg PUBLIC "-//W3C//DTD SVG 1.1 Tiny//EN" "http://www.w3.org/Graphics/SVG/1.1/DTD/svg11-tiny.dtd">
<svg version="1.1" baseProfile="tiny" id="Layer_1" xmlns="http://www.w3.org/2000/svg" xmlns:xlink="http://www.w3.org/1999/xlink"
	 x="0px" y="0px" width="482px" height="72px" viewBox="0 0 482 72" overflow="scroll" xml:space="preserve">
<rect x="-11" y="-14" fill="#FFFFFF" width="493" height="100"/>
<rect x="455" y="-11" fill="#FFB000" width="77" height="97"/>
<g>
	<path d="M30.82,2.467c-0.854-3.686-2.941-6.262-6.262-7.727c-1.855-0.806-3.918-1.208-6.189-1.208
		c-4.346,0-7.916,1.639-10.711,4.917C4.862,1.725,3.464,6.653,3.464,13.231c0,6.628,1.514,11.319,4.541,14.072
		s6.469,4.13,10.327,4.13c3.784,0,6.885-1.085,9.302-3.257s3.906-5.017,4.468-8.535H19.614v-9.009h22.484v28.967h-7.471
		l-1.135-6.738c-2.174,2.552-4.126,4.351-5.859,5.396c-2.979,1.822-6.641,2.734-10.986,2.734c-7.154,0-13.014-2.477-17.578-7.43
		c-4.761-4.977-7.141-11.784-7.141-20.421c0-8.734,2.404-15.737,7.214-21.007s11.169-7.905,19.079-7.905
		c6.861,0,12.372,1.739,16.535,5.219c4.162,3.479,6.549,7.818,7.159,13.019L30.82,2.467L30.82,2.467z"/>
	<path d="M67.833,15.321c1.943-0.244,3.332-0.549,4.169-0.916c1.501-0.635,2.251-1.624,2.251-2.966c0-1.635-0.576-2.765-1.727-3.387
		c-1.15-0.623-2.84-0.934-5.066-0.934c-2.5,0-4.27,0.61-5.309,1.831c-0.743,0.903-1.238,2.124-1.485,3.662H50.595
		c0.221-3.491,1.201-6.359,2.943-8.606c2.77-3.516,7.527-5.273,14.27-5.273c4.39,0,8.288,0.867,11.696,2.6
		c3.408,1.734,5.112,5.005,5.112,9.814v18.311c0,1.27,0.023,2.808,0.073,4.614c0.073,1.368,0.28,2.295,0.622,2.783
		c0.342,0.489,0.855,0.892,1.539,1.208V39.6H75.497c-0.316-0.806-0.537-1.562-0.658-2.271c-0.123-0.708-0.221-1.514-0.293-2.417
		c-1.449,1.563-3.119,2.893-5.01,3.992c-2.26,1.294-4.814,1.941-7.662,1.941c-3.635,0-6.637-1.032-9.006-3.095
		c-2.37-2.063-3.555-4.986-3.555-8.771c0-4.907,1.906-8.459,5.719-10.657c2.09-1.196,5.164-2.051,9.223-2.563L67.833,15.321z
		 M74.216,20.191c-0.669,0.416-1.344,0.751-2.023,1.007c-0.682,0.257-1.615,0.495-2.803,0.714l-2.376,0.439
		c-2.228,0.391-3.827,0.867-4.798,1.428c-1.644,0.952-2.465,2.43-2.465,4.431c0,1.782,0.502,3.07,1.506,3.864s2.225,1.19,3.662,1.19
		c2.281,0,4.382-0.659,6.303-1.978c1.922-1.318,2.919-3.723,2.994-7.214V20.191z"/>
	<path d="M104.392,39.601H93.954v-53.979h10.438V39.601z"/>
	<path d="M125.23,39.601h-10.438v-53.979h10.438C125.23-14.378,125.23,39.601,125.23,39.601z"/>
	<path d="M161.421,0.492c2.784,1.248,5.084,3.216,6.898,5.905c1.635,2.372,2.695,5.122,3.18,8.252
		c0.281,1.834,0.396,4.475,0.344,7.922h-29.072c0.162,4.004,1.554,6.812,4.174,8.423c1.595,1.001,3.513,1.501,5.755,1.501
		c2.378,0,4.31-0.61,5.796-1.831c0.81-0.659,1.526-1.575,2.147-2.747h10.655c-0.28,2.368-1.57,4.773-3.869,7.214
		c-3.575,3.882-8.581,5.823-15.018,5.823c-5.313,0-9.999-1.637-14.06-4.911c-4.062-3.274-6.091-8.602-6.091-15.981
		c0-6.915,1.832-12.217,5.498-15.907s8.424-5.535,14.274-5.535C155.507-1.378,158.637-0.755,161.421,0.492z M145.808,9.508
		c-1.476,1.521-2.402,3.58-2.781,6.179h17.981c-0.19-2.771-1.116-4.873-2.78-6.308c-1.664-1.434-3.728-2.152-6.189-2.152
		C149.359,7.227,147.282,7.988,145.808,9.508z"/>
	<path d="M199.296-1.25c0.133,0.012,0.433,0.031,0.896,0.055V9.498c-0.659-0.073-1.245-0.122-1.758-0.146s-0.928-0.037-1.245-0.037
		c-4.199,0-7.019,1.368-8.46,4.102c-0.805,1.538-1.208,3.906-1.208,7.104v19.08H177.01V-0.316h9.961v6.958
		c1.611-2.661,3.016-4.48,4.212-5.457c1.953-1.635,4.491-2.454,7.617-2.454C198.996-1.269,199.161-1.262,199.296-1.25z"/>
	<path d="M207.883,47.254l1.318,0.073c1.025,0.049,2.001,0.012,2.93-0.11c0.928-0.123,1.708-0.403,2.344-0.842
		c0.61-0.416,1.178-1.282,1.703-2.6c0.524-1.318,0.751-2.124,0.678-2.417L202.189-0.316h11.608l8.716,29.443l8.24-29.443h11.096
		l-13.685,39.258c-2.645,7.568-4.737,12.262-6.276,14.081c-1.54,1.818-4.619,2.728-9.238,2.728c-0.93,0-1.675-0.006-2.236-0.018
		c-0.563-0.013-1.406-0.055-2.53-0.128v-8.351H207.883z"/>
</g>
</svg>
