<?xml version="1.0" encoding="utf-8"?>
<!-- Generator: Adobe Illustrator 17.0.0, SVG Export Plug-In . SVG Version: 6.00 Build 0)  -->
<!DOCTYPE svg PUBLIC "-//W3C//DTD SVG 1.1 Tiny//EN" "http://www.w3.org/Graphics/SVG/1.1/DTD/svg11-tiny.dtd">
<svg version="1.1" baseProfile="tiny" id="Layer_1" xmlns="http://www.w3.org/2000/svg" xmlns:xlink="http://www.w3.org/1999/xlink"
	 x="0px" y="0px" width="482px" height="72px" viewBox="0 0 482 72" overflow="scroll" xml:space="preserve">
<rect x="-11" y="-14" fill="#FFFFFF" width="493" height="100"/>
<rect x="455" y="-11" fill="#FFB000" width="77" height="97"/>
<g>
	<path d="M5.798,23.284c0.349,2.492,1.035,4.354,2.057,5.588c1.869,2.246,5.072,3.368,9.609,3.368c2.717,0,4.923-0.296,6.618-0.888
		c3.216-1.134,4.824-3.244,4.824-6.328c0-1.801-0.788-3.195-2.363-4.182c-1.576-0.962-4.074-1.813-7.495-2.553l-5.844-1.295
		c-5.744-1.283-9.69-2.677-11.838-4.182C-2.271,10.294-4.09,6.359-4.09,1.005c0-4.885,1.779-8.943,5.338-12.176
		c3.559-3.231,8.787-4.848,15.682-4.848c5.758,0,10.67,1.523,14.736,4.57c4.065,3.047,6.197,7.47,6.395,13.267h-10.84
		c-0.2-3.281-1.652-5.612-4.355-6.994c-1.803-0.913-4.042-1.37-6.72-1.37c-2.979,0-5.356,0.592-7.133,1.776
		C7.235-3.584,6.347-1.931,6.347,0.19c0,1.95,0.876,3.405,2.628,4.367c1.126,0.642,3.517,1.394,7.171,2.257l9.473,2.258
		c4.152,0.987,7.264,2.307,9.336,3.959c3.218,2.566,4.827,6.279,4.827,11.14c0,4.984-1.907,9.122-5.719,12.416
		c-3.813,3.293-9.198,4.94-16.157,4.94c-7.107,0-12.696-1.622-16.768-4.867c-4.072-3.244-6.107-7.703-6.107-13.378H5.798V23.284z"/>
	<path d="M80.418,4.113c3.256,3.479,4.884,8.586,4.884,15.321c0,7.105-1.591,12.521-4.773,16.247s-7.279,5.588-12.292,5.588
		c-3.195,0-5.849-0.802-7.962-2.406c-1.154-0.888-2.285-2.184-3.391-3.886v21.021H46.557V-0.216h9.998v5.958
		c1.13-1.751,2.334-3.133,3.612-4.145c2.334-1.801,5.11-2.702,8.33-2.702C73.188-1.105,77.163,0.635,80.418,4.113z M72.408,11.7
		c-1.418-2.393-3.718-3.59-6.9-3.59c-3.823,0-6.45,1.813-7.88,5.44c-0.74,1.925-1.11,4.367-1.11,7.328
		c0,4.688,1.245,7.981,3.733,9.881c1.48,1.11,3.231,1.665,5.255,1.665c2.935,0,5.174-1.134,6.716-3.405
		c1.542-2.27,2.313-5.292,2.313-9.067C74.536,16.844,73.826,14.093,72.408,11.7z"/>
	<path d="M125.952,35.187c-3.369,4.203-8.484,6.304-15.344,6.304c-6.861,0-11.975-2.101-15.344-6.304s-5.054-9.263-5.054-15.179
		c0-5.817,1.685-10.858,5.054-15.123c3.369-4.264,8.483-6.397,15.344-6.397c6.86,0,11.975,2.133,15.344,6.397
		c3.369,4.265,5.054,9.306,5.054,15.123C131.005,25.925,129.321,30.984,125.952,35.187z M117.602,29.358
		c1.635-2.192,2.454-5.309,2.454-9.35c0-4.04-0.818-7.15-2.454-9.331c-1.636-2.18-3.979-3.271-7.031-3.271s-5.402,1.09-7.05,3.271
		s-2.472,5.291-2.472,9.331c0,4.041,0.824,7.157,2.472,9.35s3.998,3.289,7.05,3.289C113.623,32.646,115.966,31.551,117.602,29.358z"
		/>
	<path d="M170.664,2.097c2.613,2.184,3.92,5.804,3.92,10.862v27.164h-10.693V15.586c0-2.122-0.279-3.75-0.836-4.885
		c-1.019-2.072-2.957-3.108-5.816-3.108c-3.515,0-5.926,1.517-7.234,4.552c-0.679,1.604-1.018,3.652-1.018,6.144v21.834H138.55
		V-0.143h10.107v5.884c1.336-2.072,2.601-3.565,3.792-4.478c2.139-1.628,4.85-2.442,8.132-2.442
		C164.69-1.179,168.05-0.087,170.664,2.097z"/>
	<path d="M192.382,27.243c0.221,1.875,0.699,3.208,1.435,3.997c1.3,1.406,3.704,2.109,7.212,2.109c2.06,0,3.698-0.308,4.913-0.925
		c1.214-0.616,1.821-1.542,1.821-2.775c0-1.184-0.489-2.084-1.468-2.702c-0.979-0.616-4.618-1.677-10.918-3.183
		c-4.536-1.135-7.732-2.554-9.587-4.256c-1.855-1.678-2.783-4.095-2.783-7.253c0-3.725,1.449-6.926,4.349-9.604
		c2.899-2.677,6.979-4.016,12.24-4.016c4.991,0,9.058,1.006,12.202,3.016c3.144,2.011,4.948,5.484,5.414,10.418h-10.438
		c-0.146-1.357-0.526-2.43-1.138-3.22c-1.151-1.431-3.11-2.146-5.876-2.146c-2.277,0-3.898,0.358-4.865,1.073
		c-0.967,0.716-1.451,1.554-1.451,2.517c0,1.209,0.514,2.085,1.542,2.627c1.028,0.568,4.66,1.542,10.897,2.923
		c4.157,0.987,7.274,2.48,9.35,4.478c2.051,2.023,3.076,4.552,3.076,7.587c0,3.997-1.475,7.26-4.422,9.789
		c-2.948,2.528-7.504,3.793-13.668,3.793c-6.287,0-10.929-1.338-13.926-4.015c-2.997-2.677-4.495-6.088-4.495-10.233h10.584V27.243z
		"/>
	<path d="M259.289,35.187c-3.369,4.203-8.484,6.304-15.345,6.304s-11.975-2.101-15.344-6.304c-3.369-4.203-5.054-9.263-5.054-15.179
		c0-5.817,1.685-10.858,5.054-15.123c3.369-4.264,8.483-6.397,15.344-6.397s11.976,2.133,15.345,6.397
		c3.369,4.265,5.054,9.306,5.054,15.123C264.342,25.925,262.658,30.984,259.289,35.187z M250.939,29.358
		c1.635-2.192,2.453-5.309,2.453-9.35c0-4.04-0.818-7.15-2.453-9.331c-1.636-2.18-3.979-3.271-7.031-3.271
		c-3.053,0-5.402,1.09-7.05,3.271c-1.648,2.18-2.472,5.291-2.472,9.331c0,4.041,0.823,7.157,2.472,9.35
		c1.647,2.193,3.997,3.289,7.05,3.289C246.959,32.646,249.303,31.551,250.939,29.358z"/>
	<path d="M293.987-1.16c0.134,0.013,0.434,0.031,0.897,0.056V9.702c-0.659-0.074-1.245-0.123-1.758-0.148
		c-0.513-0.024-0.929-0.037-1.245-0.037c-4.199,0-7.02,1.382-8.46,4.145c-0.806,1.554-1.208,3.948-1.208,7.179v19.281h-10.511
		V-0.216h9.961v7.031c1.611-2.689,3.016-4.527,4.212-5.514c1.953-1.652,4.491-2.479,7.617-2.479
		C293.688-1.179,293.852-1.172,293.987-1.16z"/>
	<path d="M309.093,27.243c0.221,1.875,0.699,3.208,1.435,3.997c1.301,1.406,3.704,2.109,7.212,2.109
		c2.061,0,3.698-0.308,4.913-0.925c1.214-0.616,1.821-1.542,1.821-2.775c0-1.184-0.489-2.084-1.468-2.702
		c-0.979-0.616-4.618-1.677-10.918-3.183c-4.536-1.135-7.732-2.554-9.587-4.256c-1.855-1.678-2.783-4.095-2.783-7.253
		c0-3.725,1.449-6.926,4.349-9.604c2.899-2.677,6.979-4.016,12.239-4.016c4.991,0,9.059,1.006,12.202,3.016
		c3.144,2.011,4.948,5.484,5.414,10.418h-10.438c-0.146-1.357-0.526-2.43-1.138-3.22c-1.151-1.431-3.11-2.146-5.876-2.146
		c-2.277,0-3.898,0.358-4.865,1.073c-0.968,0.716-1.451,1.554-1.451,2.517c0,1.209,0.514,2.085,1.543,2.627
		c1.027,0.568,4.66,1.542,10.897,2.923c4.157,0.987,7.274,2.48,9.35,4.478c2.051,2.023,3.076,4.552,3.076,7.587
		c0,3.997-1.475,7.26-4.422,9.789c-2.948,2.528-7.504,3.793-13.669,3.793c-6.287,0-10.929-1.338-13.926-4.015
		s-4.495-6.088-4.495-10.233h10.585V27.243z"/>
</g>
</svg>
